<svg version="1.1" x="0" y="0" width="100%" height="100%" viewBox="0 0 101632 77004.8" xmlns="http://www.w3.org/2000/svg">
  <path d="M 10994 28871.6 Q 8633.6 30714.8 4799.6 32140.4 Q 4137.2 31354.4 3423.2 30887.6 Q 7182.8 29782.4 9370.4 28184 L 10992.8 28871.6 L 10994 28871.6 Z M 11754.8 19878.8 Q 11927.6 18771.2 12024.8 17642 L 8682.8 17642 Q 10084.4 18453.2 10698.8 19215.2 L 10011.2 19878.8 Q 9297.2 19018.4 7896.8 18183.2 L 8486 17642 L 6545.6 17642 L 6275.6 19878.8 L 11756 19878.8 L 11754.8 19878.8 Z M 6890 14546 L 6644 16659.2 L 10158.8 16659.2 Q 9617.6 15945.2 8241.2 15159.2 L 8879.6 14544.8 Q 10281.2 15280.4 10895.6 16018.4 L 10256 16658 L 12124.4 16658 L 12296 14544.8 L 6890 14544.8 L 6890 14546 Z M 15614 27251.6 L 15614 30568.4 Q 15614 31870.4 14679.2 32190.8 Q 13991.6 32436.8 11016.8 32436.8 Q 10845.2 31749.2 10378.4 30912.8 Q 12738.8 30962 13328 30912.8 Q 13794.8 30912.8 13794.8 30520.4 L 13794.8 27372.8 Q 6077.6 27866 5242.4 28184 Q 5069.6 27348.8 4775.6 26610.8 Q 6028.4 26489.6 7944.8 25826 Q 9984.8 25138.4 12124.4 24302 Q 7674.8 24548 7036.4 24744.8 Q 6864.8 24033.2 6594.8 23295.2 Q 7306.4 23222 8068.4 22925.6 Q 10108.4 22214 11951.6 20985.2 L 4628 20985.2 Q 4898 19412 5094.8 17740.4 L 3275.6 17740.4 L 3275.6 16560.8 L 5216 16560.8 Q 5388.8 15234.8 5512.4 13685.6 Q 4725.2 14520.8 4307.6 14865.2 Q 3644 14300 2981.6 13979.6 Q 5118.8 12456.8 6224 9975.2 L 7698.8 10319.6 Q 7575.2 10664 7305.2 11130.8 L 14751.2 11130.8 L 14751.2 12383.6 L 6519.2 12383.6 Q 6249.2 12850.4 5732 13439.6 L 13816.4 13439.6 L 13546.4 16560.8 L 15268.4 16560.8 L 15268.4 17740.4 L 13449.2 17740.4 Q 13301.6 19265.6 13202 19880 L 14530.4 19880 L 14530.4 20985.2 L 12514.4 20985.2 L 13425.2 21747.2 Q 11950.4 22558.4 10524.8 23148.8 L 15170 22952 Q 17210 21920 17948 21501.2 L 19029.2 22706 Q 15342.8 24672.8 10796 26195.6 L 19988 25654.4 Q 18906.8 24892.4 18095.6 24450.8 L 19300.4 23566.4 Q 22740.8 25506.8 24460.4 27276.8 L 23183.6 28259.6 Q 22593.2 27621.2 21634.4 26859.2 L 15614 27252.8 L 15614 27251.6 Z M 18833.6 28136 Q 22691.6 29512.4 25001.6 30962 L 23625.2 31994 Q 21291.2 30495.2 17555.6 29094.8 L 18833.6 28136 Z M 17752.4 13587.2 Q 18563.6 15478.4 19889.6 16953.2 Q 21267.2 15430.4 21905.6 13414.4 L 17849.6 13414.4 L 17752.4 13587.2 Z M 23528 13414.4 Q 22740.8 16044.8 20970.8 18009.2 Q 22961.6 19704.8 25689.2 20442.8 Q 25026.8 21057.2 24633.2 21843.2 Q 21881.6 20934.8 19841.6 19067.6 Q 18071.6 20541.2 15662 21549.2 Q 15171.2 20738 14630 20320.4 Q 17112.8 19412 18832.4 18010.4 Q 17727.2 16733.6 16866.8 14963.6 Q 16203.2 15848 15638 16338.8 Q 15171.2 15699.2 14459.6 15233.6 Q 16572.8 13390.4 17505.2 10072.4 L 19103.6 10366.4 Q 18882.8 11177.6 18513.2 12038 L 25198.4 12038 L 25198.4 13414.4 L 23528 13414.4 Z M 45228.8 12530 L 32595.2 12530 L 32595.2 14667.2 L 45228.8 14667.2 L 45228.8 12530 Z M 45228.8 16068.8 L 32595.2 16068.8 L 32595.2 18256.4 L 45228.8 18256.4 L 45228.8 16068.8 Z M 47072 19731.2 L 30801.2 19731.2 L 30801.2 11054 L 47072 11054 L 47072 19731.2 Z M 49577.6 30249.2 L 49577.6 31870.4 L 28270.4 31870.4 L 28270.4 30249.2 L 38003.6 30249.2 L 38003.6 27594.8 L 31145.6 27594.8 L 31145.6 26120 L 38003.6 26120 L 38003.6 23810 L 31980.8 23810 Q 30827.6 25284.8 29450 26537.6 Q 28738.4 25826 27903.2 25383.2 Q 30827.6 23171.6 32400.8 19755.2 L 34194.8 20246 Q 33777.2 21130.4 33089.6 22235.6 L 38004.8 22235.6 L 38004.8 20268.8 L 39872 20268.8 L 39872 22235.6 L 48032 22235.6 L 48032 23808.8 L 39872 23808.8 L 39872 26118.8 L 47024 26118.8 L 47024 27593.6 L 39872 27593.6 L 39872 30248 L 49578.8 30248 L 49577.6 30249.2 Z M 57934.4 15774.8 Q 56753.6 13758.8 54272 11129.6 L 55673.6 10269.2 Q 58302.8 12947.6 59434.4 14766.8 L 57935.6 15774.8 L 57934.4 15774.8 Z M 53289.2 15651.2 L 55083.2 15651.2 L 55083.2 32484.8 L 53289.2 32484.8 L 53289.2 15651.2 Z M 68673.2 27939.2 Q 66830 25014.8 63240.8 21452 Q 61226 25703.6 57687.2 28161.2 Q 57293.6 27326 56555.6 26490.8 Q 61667.6 23246 63266 15356 L 65133.2 15652.4 Q 64642.4 17864 63954.8 19732.4 Q 67961.6 23343.2 70000.4 26490.8 L 68674.4 27940.4 L 68673.2 27939.2 Z M 73686.8 30052.4 Q 73686.8 31748 72581.6 32140.4 Q 71697.2 32484.8 68134.4 32484.8 Q 67937.6 31478 67470.8 30617.6 Q 69731.6 30714.8 71280.8 30641.6 Q 71895.2 30641.6 71895.2 30052.4 L 71895.2 12873.2 L 60000.8 12873.2 L 60000.8 11103.2 L 73689.2 11103.2 L 73689.2 30052.4 L 73686.8 30052.4 Z M 11460.8 51343.6 Q 10379.6 54956.8 9862.4 56333.2 L 8782.4 55816 Q 9641.6 53210.8 10035.2 50729.2 L 11460.8 51343.6 Z M 5537.6 51638.8 Q 5340.8 55546 4432.4 57880 L 3179.6 57389.2 Q 4038.8 55177.6 4284.8 51466 L 5537.6 51638.8 Z M 8192 54956.8 Q 8192 58346.8 7871.6 60460 Q 9297.2 62058.4 10992.8 64392.4 L 9788 65596 Q 8928.8 64171.6 7503.2 62303.2 Q 6668 66062.8 4258.4 68741.2 Q 3767.6 68029.6 3056 67538.8 Q 6594.8 63558.4 6594.8 54980.8 L 6594.8 46699.6 L 8192 46699.6 L 8192 54956.8 Z M 15858.8 60337.6 Q 14729.6 64663.6 12516.8 67218.4 Q 12026 66530.8 11288 65940.4 Q 13304 63728.8 14188.4 59969.2 L 15858.8 60337.6 Z M 19692.8 57290.8 L 19692.8 66824.8 Q 19692.8 68202.4 18833.6 68644 Q 18170 68964.4 15639.2 68964.4 Q 15566 68202.4 15099.2 67218.4 Q 15640.4 67243.6 17483.6 67243.6 Q 17901.2 67218.4 17901.2 66824.8 L 17901.2 57290.8 L 14681.6 57290.8 Q 12765.2 57290.8 12471.2 57608.8 Q 12274.4 56873.2 11880.8 55988.8 Q 12298.4 55865.2 12544.4 54512.8 Q 13206.8 51146.8 13133.6 48172 Q 20309.6 47927.2 23333.6 46673.2 L 24168.8 48222.4 Q 21023.6 49427.2 14855.6 49672 Q 14706.8 52499.2 14068.4 55571.2 L 17902.4 55571.2 L 17902.4 51170.8 L 19696.4 51170.8 L 19696.4 55571.2 L 25128.8 55571.2 L 25128.8 57290.8 L 19696.4 57290.8 L 19692.8 57290.8 Z M 22643.6 59846.8 Q 24608 63288.4 25444.4 66532 L 23822 67146.4 Q 23134.4 64123.6 21143.6 60412 L 22642.4 59846.8 L 22643.6 59846.8 Z " fill-rule="nonzero" style="fill:#446cb3;;fill-opacity:1;"/>
</svg>