<svg version="1.1" x="0" y="0" width="100%" height="100%" viewBox="0 0 121856 40550.4" xmlns="http://www.w3.org/2000/svg">
  <path d="M 16006.4 10145.6 L 16006.4 29094.8 Q 16006.4 31527.2 14508.8 32166.8 Q 13107.2 32732 9297.2 32732 Q 9003.2 31257.2 8142.8 29684 Q 10649.6 29807.6 12099.2 29734.4 Q 12837.2 29734.4 12837.2 29096 L 12837.2 10146.8 L 16006.4 10146.8 L 16006.4 10145.6 Z M 21561.2 15478.4 Q 25296.8 22016 26181.2 26489.6 L 22985.6 27742.4 Q 22223.6 23097.2 18684.8 16559.6 L 21560 15478.4 L 21561.2 15478.4 Z M 9741.2 16313.6 Q 7995.2 24006.8 5537.6 27251.6 Q 4432.4 26513.6 2686.4 25726.4 Q 5316.8 22409.6 6398 15748.4 L 9740 16313.6 L 9741.2 16313.6 Z M 36724.4 22188.8 Q 36576.8 23294 36626 24546.8 Q 29498 25923.2 28563.2 26440.4 Q 28318.4 25408.4 27728 24006.8 Q 28367.6 23859.2 29744 22433.6 Q 30555.2 21525.2 31808 19853.6 Q 29056.4 20174 28392.8 20494.4 Q 28098.8 19362.8 27508.4 17889.2 Q 28049.6 17740.4 28984.4 16414.4 Q 30778.4 13980.8 32178.8 9729.2 L 34785.2 10934 Q 33236 14520.8 31023.2 17618 L 33432.8 17421.2 Q 34365.2 15896 34906.4 14889.2 L 37119.2 16313.6 Q 34955.6 19878.8 32400.8 22901.6 L 36725.6 22190 L 36724.4 22188.8 Z M 36551.6 29216 Q 33258.8 30176 28294.4 31452.8 L 27779.6 28677.2 Q 31172 28013.6 36234.8 26808.8 L 36552.8 29217.2 L 36551.6 29216 Z M 41075.6 29682.8 L 45449.6 29682.8 L 45449.6 25972.4 L 41075.6 25972.4 L 41075.6 29682.8 Z M 41075.6 13660.4 L 41075.6 17198 L 45449.6 17198 L 45449.6 13660.4 L 41075.6 13660.4 Z M 41075.6 23392.4 L 45449.6 23392.4 L 45449.6 19805.6 L 41075.6 19805.6 L 41075.6 23392.4 Z M 50315.6 29682.8 L 50315.6 32313.2 L 36135.2 32313.2 L 36135.2 29682.8 L 38298.8 29682.8 L 38298.8 11006 L 48350 11006 L 48350 29682.8 L 50316.8 29682.8 L 50315.6 29682.8 Z M 67395.2 25702.4 Q 67886 26537.6 68746.4 27348.8 Q 70024.4 26586.8 71204 25702.4 L 67394 25702.4 L 67395.2 25702.4 Z M 63660.8 23244.8 L 67322 23244.8 L 67322 21549.2 L 63660.8 21549.2 L 63660.8 23244.8 Z M 63660.8 19116.8 L 67322 19116.8 L 67322 17421.2 L 63660.8 17421.2 L 63660.8 19116.8 Z M 57393.2 14937.2 L 70392.8 14937.2 L 70392.8 13316 L 57393.2 13316 L 57393.2 14937.2 Z M 73809.2 26907.2 Q 72162.8 28012.4 70640 28798.4 Q 72556.4 29879.6 74940.8 30297.2 Q 73883.6 31378.4 73245.2 32730.8 Q 67150.4 31232 64643.6 25702.4 L 62136.8 25702.4 L 62136.8 29536.4 L 66266 28750.4 Q 66020 29930 66020 31158.8 Q 59778.8 32511.2 59237.6 32879.6 L 59237.6 32903.6 Q 58991.6 31774.4 58180.4 30545.6 Q 59434.4 29710.4 59434.4 28259.6 L 59434.4 25704.8 L 57394.4 25704.8 L 57394.4 23247.2 L 60981.2 23247.2 L 60981.2 21551.6 L 57909.2 21551.6 L 57909.2 19119.2 L 60981.2 19119.2 L 60981.2 17423.6 L 57394.4 17423.6 L 57394.4 18135.2 Q 57394.4 28186.4 54419.6 32831.6 Q 53141.6 31824.8 51815.6 31331.6 Q 54446 27252.8 54446 18134 L 54446 10860.8 L 73343.6 10860.8 L 73343.6 17422.4 L 70026.8 17422.4 L 70026.8 19118 L 73565.6 19118 L 73565.6 21550.4 L 70026.8 21550.4 L 70026.8 23246 L 74621.6 23246 L 74621.6 25703.6 L 72040.4 25703.6 L 73810.4 26908.4 L 73809.2 26907.2 Z M 96714.8 14274.8 L 79388 14274.8 L 79388 11374.4 L 96714.8 11374.4 L 96714.8 14274.8 Z M 83739.2 22803.2 Q 82017.2 27372.8 79068.8 30494 Q 77840 29462 76366.4 28750.4 Q 79241.6 26120 80642 21992 L 83739.2 22803.2 Z M 89734.4 20196.8 L 89734.4 29315.6 Q 89734.4 31625.6 88236.8 32240 Q 86982.8 32754.8 83345.6 32754.8 Q 83099.6 31181.6 82313.6 29634.8 Q 84819.2 29756 85900.4 29708 Q 86540 29708 86540 29241.2 L 86540 20196.8 L 77151.2 20196.8 L 77151.2 17273.6 L 98999.6 17273.6 L 98999.6 20196.8 L 89734.4 20196.8 Z M 94995.2 21892.4 Q 98067.2 26193.2 99074 29216 L 96027.2 30568.4 Q 95166.8 27399.2 92242.4 23049.2 L 94996.4 21893.6 L 94995.2 21892.4 Z " fill-rule="nonzero" style="fill:#ff9368;;fill-opacity:1;"/>
</svg>