<svg version="1.1" x="0" y="0" width="100%" height="100%" viewBox="0 0 105472 40550.4" xmlns="http://www.w3.org/2000/svg">
  <path d="M 25518.8 22236.8 L 15836 22236.8 L 15836 32754.8 L 12690.8 32754.8 L 12690.8 22236.8 L 3254 22236.8 L 3254 19361.6 L 12690.8 19361.6 L 12690.8 14446.4 Q 9128 14913.2 5368.4 15183.2 Q 5244.8 13978.4 4581.2 12578 Q 15296 11717.6 21046.4 9998 L 23259.2 12455.6 Q 20384 13290.8 15837.2 14004.8 L 15837.2 19361.6 L 25520 19361.6 L 25520 22236.8 L 25518.8 22236.8 Z M 37019.6 24743.6 Q 37019.6 26366 36381.2 26880.8 Q 35790.8 27398 34414.4 27398 Q 34317.2 26096 33726.8 24915.2 L 34709.6 24915.2 Q 34906.4 24915.2 34906.4 24670.4 L 34906.4 16854.8 L 33677.6 16854.8 L 33677.6 32732 L 31220 32732 L 31220 16854.8 L 30064.4 16854.8 L 30064.4 27644 L 27927.2 27644 L 27927.2 14276 L 31220 14276 L 31220 9778.4 L 33677.6 9778.4 L 33677.6 14276 L 37019.6 14276 L 37019.6 24744.8 L 37019.6 24743.6 Z M 42671.6 16977.2 Q 44073.2 20246 44957.6 22703.6 L 44957.6 13094 L 40778 13094 L 40778 17739.2 L 42670.4 16977.2 L 42671.6 16977.2 Z M 48128 29388.8 Q 48348.8 29388.8 48398 29241.2 Q 48545.6 28971.2 48569.6 28528.4 Q 48618.8 27644 48618.8 25800.8 Q 49529.6 26564 50561.6 26908.4 Q 50462 29586.8 50290.4 30298.4 Q 50117.6 31209.2 49602.8 31700 Q 49061.6 32141.6 48250.4 32141.6 L 47045.6 32141.6 Q 46037.6 32141.6 45448.4 31479.2 Q 44957.6 30888.8 44957.6 28824.8 L 44957.6 24033.2 L 42892.4 24965.6 Q 42351.2 22804.4 40778 18848 L 40778 21550.4 Q 40778 29882 36920 33053.6 Q 35961.2 31972.4 34707.2 31308.8 Q 38049.2 28557.2 38049.2 21552.8 L 38049.2 10346 L 47561.6 10346 L 47561.6 28778 Q 47561.6 29072 47634.8 29219.6 Q 47732 29392.4 47879.6 29392.4 L 48125.6 29392.4 L 48128 29388.8 Z M 62235.2 14643.2 Q 61620.8 13341.2 59974.4 10834.4 L 62382.8 9705.2 Q 64005.2 11966 64840.4 13588.4 L 62897.6 14644.4 L 69608 14644.4 L 67739.6 13833.2 Q 68968.4 11842.4 69682.4 9802.4 L 72630.8 10958 Q 70787.6 13833.2 70197.2 14644.4 L 74547.2 14644.4 L 74547.2 17249.6 L 58007.6 17249.6 L 58007.6 14644.4 L 62235.2 14644.4 L 62235.2 14643.2 Z M 56385.2 15430.4 Q 55304 14028.8 52625.6 12038 L 54444.8 10292 Q 57074 11987.6 58326.8 13437.2 L 56386.4 15429.2 L 56385.2 15430.4 Z M 55967.6 21695.6 Q 54639.2 20098.4 51960.8 18402.8 L 53706.8 16486.4 Q 56582 18156.8 57884 19607.6 L 55967.6 21695.6 Z M 57590 24129.2 Q 56508.8 28085.6 55156.4 31796 L 52698.8 30494 Q 54099.2 27201.2 55403.6 22776.8 L 57591.2 24129.2 L 57590 24129.2 Z M 61841.6 29192 L 63438.8 29192 L 63438.8 24719.6 L 61841.6 24719.6 L 61841.6 29192 Z M 65428.4 24719.6 L 65428.4 29192 L 67076 29192 L 67076 24719.6 L 65428.4 24719.6 Z M 69066.8 24719.6 L 69066.8 29192 L 70688 29192 L 70688 24719.6 L 69066.8 24719.6 Z M 74940.8 29192 L 74940.8 31749.2 L 57344 31749.2 L 57344 29192 L 59531.6 29192 L 59531.6 22950.8 L 59285.6 23072 Q 58326.8 21377.6 57591.2 20714 Q 61031.6 19361.6 63144.8 17421.2 L 65184.8 18797.6 Q 63513.2 20444 60514.4 22360.4 L 72484.4 22360.4 Q 70444.4 20934.8 67151.6 19239.2 L 68380.4 17322.8 Q 72360.8 19166 74694.8 20812.4 L 73342.4 23000 L 73145.6 22852.4 L 73145.6 29193.2 L 74940.8 29193.2 L 74940.8 29192 Z M 90153.2 14864 L 90080 14987.6 Q 93987.2 12947.6 95878.4 10169.6 L 98778.8 11374.4 Q 96224 14816 92070.8 17297.6 Q 91210.4 16092.8 90005.6 15160.4 Q 88335.2 18428 87647.6 19485.2 L 85410.8 18821.6 Q 86615.6 16536.8 87278 14152.4 L 90154.4 14864 L 90153.2 14864 Z M 99220.4 18108.8 Q 96542 21574.4 92241.2 24080 Q 91209.2 22703.6 90080 21917.6 Q 94355.6 19704.8 96346.4 16902.8 L 99221.6 18107.6 L 99220.4 18108.8 Z M 83739.2 14126 Q 84942.8 15969.2 85409.6 17715.2 L 83001.2 18575.6 Q 82680.8 16904 81477.2 14840 L 83738 14126 L 83739.2 14126 Z M 90080 12479.6 Q 85212.8 13684.4 77349.2 14249.6 Q 77252 13266.8 76588.4 11841.2 Q 84108.8 11177.6 88336.4 10022 L 90082.4 12479.6 L 90080 12479.6 Z M 79142 19607.6 Q 78576.8 17691.2 77078 15724.4 L 79215.2 14789.6 Q 80714 16509.2 81428 18476 L 79142 19607.6 Z M 86270 23638.4 Q 88604 25529.6 89783.6 27324.8 L 87843.2 29291.6 Q 86958.8 27766.4 85042.4 25923.2 L 85042.4 32681.6 L 82215.2 32681.6 L 82215.2 26955.2 Q 80224.4 29585.6 77987.6 31329.2 Q 77300 29879.6 76244 28724 Q 79119.2 26954 81306.8 23637.2 L 77103.2 23637.2 L 77103.2 21006.8 L 82215.2 21006.8 L 82215.2 18845.6 L 85042.4 18845.6 L 85042.4 21006.8 L 89588 21006.8 L 89588 23637.2 L 86271.2 23637.2 L 86270 23638.4 Z M 99834.8 24867.2 Q 96788 29855.6 90815.6 32754.8 Q 89956.4 31329.2 88702.4 30224 Q 94478 27890 96911.6 23686.4 L 99834.8 24867.2 Z " fill-rule="nonzero" style="fill:#0766d2;;fill-opacity:1;"/>
</svg>