<svg version="1.1" x="0" y="0" width="100%" height="100%" viewBox="0 0 122880 40550.4" xmlns="http://www.w3.org/2000/svg">
  <path d="M 18539.6 17370.8 L 14360 17370.8 L 14360 16166 L 18539.6 16166 L 18539.6 14937.2 L 15197.6 14937.2 L 15197.6 13733.6 L 18539.6 13733.6 L 18539.6 12552.8 L 14631.2 12552.8 L 14631.2 11349.2 L 18539.6 11349.2 L 18539.6 10071.2 L 20259.2 10071.2 L 20259.2 11349.2 L 24339.2 11349.2 L 24339.2 12552.8 L 20259.2 12552.8 L 20259.2 13733.6 L 23945.6 13733.6 L 23945.6 14937.2 L 20259.2 14937.2 L 20259.2 16166 L 24780.8 16166 L 24780.8 17370.8 L 20259.2 17370.8 L 20259.2 18648.8 L 18539.6 18648.8 L 18539.6 17370.8 Z M 22643.6 25702.4 L 5537.6 25702.4 L 5537.6 24424.4 L 20848.4 24424.4 L 20848.4 22925.6 L 6447.2 22925.6 L 6447.2 21722 L 20848.4 21722 L 20848.4 20296.4 L 5685.2 20296.4 L 5685.2 19018.4 L 22643.6 19018.4 L 22643.6 25703.6 L 22643.6 25702.4 Z M 13697.6 25799.6 Q 15885.2 27028.4 16990.4 28332.8 L 15810.8 29364.8 Q 14753.6 28062.8 12590 26734.4 L 13697.6 25799.6 Z M 7971.2 17321.6 L 3743.6 17321.6 L 3743.6 16118 L 7971.2 16118 L 7971.2 14937.2 L 4602.8 14937.2 L 4602.8 13733.6 L 7971.2 13733.6 L 7971.2 12552.8 L 4038.8 12552.8 L 4038.8 11349.2 L 7971.2 11349.2 L 7971.2 10071.2 L 9666.8 10071.2 L 9666.8 11349.2 L 13131.2 11349.2 L 13131.2 12552.8 L 9666.8 12552.8 L 9666.8 13733.6 L 12786.8 13733.6 L 12786.8 14937.2 L 9666.8 14937.2 L 9666.8 16118 L 13450.4 16118 L 13450.4 17321.6 L 9666.8 17321.6 L 9666.8 18650 L 7971.2 18650 L 7971.2 17321.6 Z M 3818 30986 Q 5046.8 29512.4 5931.2 26931.2 L 7454 27569.6 Q 6372.8 30617.6 5390 31870.4 L 3816.8 30986 L 3818 30986 Z M 17628.8 30617.6 Q 18489.2 30617.6 18734 30224 Q 18980 29830.4 19077.2 28283.6 Q 19740.8 28725.2 20699.6 28872.8 Q 20502.8 30864.8 19937.6 31503.2 Q 19347.2 32166.8 17750 32166.8 L 12417.2 32166.8 Q 10377.2 32166.8 9665.6 31700 Q 8978 31257.2 8978 29931.2 L 8978 26735.6 L 10772 26735.6 L 10772 29907.2 Q 10772 30372.8 11090 30496.4 Q 11386.4 30620 12515.6 30620 L 17627.6 30620 L 17628.8 30617.6 Z M 22667.6 26710.4 Q 24608 29241.2 25271.6 31232 L 23552 31797.2 Q 22864.4 29757.2 21021.2 27202.4 L 22667.6 26711.6 L 22667.6 26710.4 Z M 40852.4 14816 Q 40337.6 12947.6 38838.8 10760 L 40288.4 10169.6 Q 41910.8 12506 42401.6 14103.2 L 40852.4 14817.2 L 40852.4 14816 Z M 47193.2 16486.4 L 39648.8 16486.4 L 39648.8 20738 L 47193.2 20738 L 47193.2 16486.4 Z M 48915.2 22310 L 37977.2 22310 L 37977.2 14913.2 L 44170.4 14913.2 Q 45546.8 12358.4 46334 10072.4 L 48029.6 10736 Q 46530.8 13782.8 45891.2 14914.4 L 48915.2 14914.4 L 48915.2 22311.2 L 48915.2 22310 Z M 42771.2 22803.2 Q 44786 24767.6 45720.8 26562.8 L 44466.8 27372.8 Q 43534.4 25529.6 41567.6 23441.6 L 42772.4 22803.2 L 42771.2 22803.2 Z M 30827.6 26637.2 L 33899.6 25973.6 L 33899.6 22778 L 30827.6 22778 L 30827.6 26637.2 Z M 30827.6 12726.8 L 30827.6 16216.4 L 33899.6 16216.4 L 33899.6 12726.8 L 30827.6 12726.8 Z M 30827.6 21278 L 33899.6 21278 L 33899.6 17715.2 L 30827.6 17715.2 L 30827.6 21278 Z M 35495.6 27225.2 L 35495.6 32510 L 33898.4 32510 L 33898.4 27594.8 Q 30309.2 28430 27999.2 28920.8 L 27630.8 27274.4 L 29228 26954 L 29228 12725.6 L 27999.2 12725.6 L 27999.2 11103.2 L 36970.4 11103.2 L 36970.4 12725.6 L 35495.6 12725.6 L 35495.6 25604 L 36821.6 25334 L 37018.4 26856.8 L 35495.6 27225.2 Z M 36330.8 30371.6 Q 37388 28652 37878.8 25113.2 L 39279.2 25335.2 Q 38837.6 28972.4 37732.4 30987.2 L 36330.8 30372.8 L 36330.8 30371.6 Z M 45105.2 30568.4 Q 45646.4 30568.4 45794 30101.6 Q 45965.6 29636 46014.8 27866 Q 46481.6 28210.4 47416.4 28480.4 Q 47292.8 30593.6 46850 31305.2 Q 46408.4 32019.2 45276.8 32019.2 L 42328.4 32019.2 Q 40952 32019.2 40485.2 31576.4 Q 40043.6 31134.8 40043.6 29880.8 L 40043.6 24400.4 L 41566.4 24400.4 L 41566.4 29880.8 Q 41566.4 30323.6 41738 30444.8 Q 41910.8 30568.4 42501.2 30568.4 L 45106.4 30568.4 L 45105.2 30568.4 Z M 47882 24646.4 Q 49725.2 27742.4 50364.8 29979.2 L 48988.4 30641.6 Q 48274.4 28086.8 46604 25186.4 L 47880.8 24647.6 L 47882 24646.4 Z M 62086.4 21795.2 Q 61006.4 20860.4 58326.8 19041.2 Q 56926.4 21401.6 53436.8 22998.8 Q 52994 22212.8 52282.4 21746 Q 56262.8 20172.8 57221.6 17394.8 L 52503.2 17394.8 L 52503.2 15896 L 57542 15896 Q 57591.2 15578 57591.2 15011.6 L 57591.2 13587.2 L 55526 13587.2 Q 54814.4 14864 53979.2 15774.8 Q 53192 15208.4 52504.4 14890.4 Q 54323.6 13144.4 55282.4 9999.2 L 56928.8 10319.6 Q 56756 10934 56265.2 12113.6 L 62950.4 12113.6 L 62950.4 13588.4 L 59337.2 13588.4 L 59337.2 15012.8 Q 59337.2 15579.2 59288 15897.2 L 63564.8 15897.2 L 63564.8 17396 L 59018 17396 L 58896.8 17813.6 Q 61551.2 19239.2 63369.2 20541.2 L 62091.2 21795.2 L 62086.4 21795.2 Z M 57861.2 23932.4 L 57861.2 26242.4 L 69214.4 26242.4 L 69214.4 23932.4 L 57861.2 23932.4 Z M 69214.4 30100.4 L 69214.4 27668 L 57861.2 27668 L 57861.2 30100.4 L 69214.4 30100.4 Z M 56066 22433.6 L 71057.6 22433.6 L 71057.6 32460.8 L 69214.4 32460.8 L 69214.4 31600.4 L 57861.2 31600.4 L 57861.2 32511.2 L 56066 32511.2 L 56066 22434.8 L 56066 22433.6 Z M 71351.6 13684.4 L 66288.8 13684.4 L 66288.8 18893.6 L 71351.6 18893.6 L 71351.6 13684.4 Z M 73145.6 12038 L 73145.6 20566.4 L 64569.2 20566.4 L 64569.2 12038 L 73145.6 12038 Z M 84894.8 20466.8 L 83223.2 20466.8 L 83272.4 10515.2 L 84942.8 10539.2 L 84894.8 20466.8 Z M 82437.2 28553.6 L 80642 28553.6 L 80642 21057.2 L 95657.6 21057.2 L 95657.6 28454 L 93814.4 28454 L 93814.4 22752.8 L 82437.2 22752.8 L 82437.2 28552.4 L 82437.2 28553.6 Z M 80249.6 19852.4 L 78578 19852.4 L 78627.2 11571.2 L 80297.6 11571.2 L 80249.6 19852.4 Z M 88851.2 25161.2 Q 88851.2 27398 87276.8 28896.8 Q 84968 31108.4 78995.6 32436.8 Q 78528.8 31625.6 77817.2 30986 Q 83518.4 29906 85631.6 28086.8 Q 86984 26907.2 86984 25112 L 86984 23490.8 L 88852.4 23490.8 L 88852.4 25161.2 L 88851.2 25161.2 Z M 89489.6 27496.4 Q 94528.4 28995.2 98018 30863.6 L 97059.2 32436.8 Q 93617.6 30444.8 88581.2 28847.6 L 89489.6 27495.2 L 89489.6 27496.4 Z M 89046.8 12726.8 Q 90104 14790.8 92070.8 16313.6 Q 94110.8 14766.8 95216 12776 L 89046.8 12726.8 Z M 97600.4 11547.2 Q 96371.6 14937.2 93569.6 17273.6 Q 96051.2 18674 99172.4 19264.4 Q 98558 19853.6 97991.6 20861.6 Q 94724 20150 92069.6 18380 Q 89759.6 19878.8 86760.8 20664.8 Q 86392.4 19706 85851.2 19091.6 Q 88480.4 18502.4 90644 17248.4 Q 88530.8 15356 87375.2 12801.2 L 87596 12728 L 86613.2 12728 L 86613.2 11130.8 L 96173.6 11154.8 L 96491.6 11081.6 L 97599.2 11548.4 L 97600.4 11547.2 Z " fill-rule="nonzero" style="fill:#d2527f;;fill-opacity:1;"/>
</svg>