<svg version="1.1" x="0" y="0" width="100%" height="100%" viewBox="0 0 139264 77004.8" xmlns="http://www.w3.org/2000/svg">
  <path d="M 52140.8 27693.2 L 56048 27693.2 L 56048 16192.4 L 52755.2 16192.4 L 52755.2 13955.6 Q 55286 13464.8 56980.4 12432.8 L 59660 12432.8 L 59660 27693.2 L 63076.4 27693.2 L 63076.4 30617.6 L 52140.8 30617.6 L 52140.8 27693.2 Z M 74663.6 22188.8 Q 74516 23294 74565.2 24546.8 Q 67437.2 25923.2 66502.4 26440.4 Q 66257.6 25408.4 65667.2 24006.8 Q 66306.8 23859.2 67683.2 22433.6 Q 68494.4 21525.2 69747.2 19853.6 Q 66995.6 20174 66332 20494.4 Q 66038 19362.8 65447.6 17889.2 Q 65988.8 17740.4 66923.6 16414.4 Q 68717.6 13980.8 70118 9729.2 L 72724.4 10934 Q 71175.2 14520.8 68962.4 17618 L 71372 17421.2 Q 72304.4 15896 72845.6 14889.2 L 75058.4 16313.6 Q 72894.8 19878.8 70340 22901.6 L 74664.8 22190 L 74663.6 22188.8 Z M 74490.8 29216 Q 71198 30176 66233.6 31452.8 L 65718.8 28677.2 Q 69111.2 28013.6 74174 26808.8 L 74492 29217.2 L 74490.8 29216 Z M 79014.8 29682.8 L 83388.8 29682.8 L 83388.8 25972.4 L 79014.8 25972.4 L 79014.8 29682.8 Z M 79014.8 13660.4 L 79014.8 17198 L 83388.8 17198 L 83388.8 13660.4 L 79014.8 13660.4 Z M 79014.8 23392.4 L 83388.8 23392.4 L 83388.8 19805.6 L 79014.8 19805.6 L 79014.8 23392.4 Z M 88254.8 29682.8 L 88254.8 32313.2 L 74074.4 32313.2 L 74074.4 29682.8 L 76238 29682.8 L 76238 11006 L 86289.2 11006 L 86289.2 29682.8 L 88256 29682.8 L 88254.8 29682.8 Z M 53781.2 59305.6 L 51471.2 59969.2 L 51471.2 65965.6 Q 51471.2 67882 50463.2 68496.4 Q 49578.8 69086.8 47097.2 69037.6 Q 46949.6 67661.2 46335.2 66332.8 Q 47760.8 66406 48375.2 66358 Q 48792.8 66358 48792.8 65939.2 L 48792.8 60754 L 46262 61492 L 45622.4 58690 L 48794 57904 L 48794 53603.2 L 46016 53603.2 L 46016 50899.6 L 48794 50899.6 L 48794 46278.4 L 51472.4 46278.4 L 51472.4 50899.6 L 53561.6 50899.6 L 53561.6 53603.2 L 51472.4 53603.2 L 51472.4 57216.4 L 53412.8 56675.2 L 53782.4 59304.4 L 53781.2 59305.6 Z M 57810.8 61198 Q 59825.6 63655.6 60563.6 65375.2 L 58082 66800.8 Q 57442.4 65081.2 55502 62500 L 57812 61198 L 57810.8 61198 Z M 65969.6 56503.6 L 65969.6 58446.4 L 68673.2 58446.4 L 68673.2 61100.8 L 65969.6 61100.8 L 65969.6 66113.2 Q 65969.6 68177.2 64740.8 68742.4 Q 63734 69209.2 60783.2 69209.2 Q 60587.6 67932.4 59948 66457.6 Q 61791.2 66530.8 62726 66481.6 Q 63192.8 66481.6 63192.8 66064 L 63192.8 61100.8 L 54148.4 61100.8 L 54148.4 58446.4 L 63192.8 58446.4 L 63192.8 56503.6 L 53927.6 56503.6 L 53927.6 53849.2 L 60022.4 53849.2 L 60022.4 51712 L 54983.6 51712 L 54983.6 49057.6 L 60022.4 49057.6 L 60022.4 46379.2 L 62800.4 46379.2 L 62800.4 49057.6 L 67739.6 49057.6 L 67739.6 51712 L 62800.4 51712 L 62800.4 53849.2 L 68844.8 53849.2 L 68844.8 56503.6 L 65969.6 56503.6 Z M 93396.8 61518.4 L 85950.8 61518.4 Q 86786 62918.8 87352.4 64123.6 L 85090.4 64934.8 Q 84722 64000 83616.8 61936 L 84869.6 61518.4 L 77546 61518.4 L 77546 59182 L 93396.8 59182 L 93396.8 61518.4 Z M 88384.4 56012.8 L 90178.4 56012.8 L 90178.4 53628.4 L 88384.4 53628.4 L 88384.4 56012.8 Z M 86417.6 53628.4 L 84698 53628.4 L 84698 56012.8 L 86417.6 56012.8 L 86417.6 53628.4 Z M 82707.2 53628.4 L 81035.6 53628.4 L 81035.6 56012.8 L 82707.2 56012.8 L 82707.2 53628.4 Z M 83714 51564.4 L 83861.6 50310.4 L 77866.4 50310.4 L 77866.4 48001.6 L 84058.4 48001.6 Q 84107.6 47362 84156.8 46182.4 L 87252.8 46279.6 L 87008 48001.6 L 93299.6 48001.6 L 93299.6 50310.4 L 86688.8 50310.4 L 86492 51564.4 L 92562.8 51564.4 L 92562.8 58076.8 L 78752 58076.8 L 78752 51564.4 L 83715.2 51564.4 L 83714 51564.4 Z M 77692.4 47338 Q 75014 51270.4 71672 54193.6 Q 71130.8 52990 70319.6 51785.2 Q 73367.6 49230.4 75087.2 46279.6 L 77692.4 47336.8 L 77692.4 47338 Z M 78110 52596.4 Q 77298.8 54266.8 76217.6 56012.8 L 76242.8 56012.8 L 76242.8 69209.2 L 73515.2 69209.2 L 73515.2 59845.6 Q 72680 60926.8 71745.2 61861.6 Q 70983.2 60288.4 70148 59132.8 Q 73490 55961.2 75504.8 51660.4 L 78110 52595.2 L 78110 52596.4 Z M 76414.4 67048 Q 77643.2 65425.6 78330.8 62501.2 L 80543.6 63361.6 Q 79683.2 66703.6 78602 68300.8 L 76414.4 67048 Z M 86811.2 66703.6 Q 87326 66703.6 87498.8 66334 Q 87670.4 65965.6 87719.6 64663.6 Q 88554.8 65228.8 89956.4 65522.8 Q 89759.6 67489.6 89145.2 68203.6 Q 88554.8 68866 87105.2 68866 L 84057.2 68866 Q 82190 68866 81526.4 68251.6 Q 80912 67662.4 80912 66040 L 80912 63041.2 L 83469.2 63041.2 L 83469.2 66016 Q 83469.2 66457.6 83640.8 66581.2 Q 83813.6 66704.8 84428 66704.8 L 86812.4 66704.8 L 86811.2 66703.6 Z M 91012.4 62353.6 Q 93028.4 65056 93617.6 66998.8 L 91332.8 68030.8 Q 90791.6 65893.6 88875.2 63312.4 L 91012.4 62353.6 Z " fill-rule="nonzero" style="fill:#00829a;;fill-opacity:1;"/>
</svg>