<svg version="1.1" x="0" y="0" width="100%" height="100%" viewBox="0 0 160614.4 40550.4" xmlns="http://www.w3.org/2000/svg">
  <path d="M 9420.8 14422.4 Q 7504.4 19140.8 5046.8 22506.8 Q 4529.6 22162.4 3449.6 21621.2 Q 5831.6 18770 7700 13954.4 L 9419.6 14421.2 L 9420.8 14422.4 Z M 20774 13931.6 Q 23945.6 18453.2 25346 21401.6 L 23823.2 22336.4 Q 22250 18994.4 19275.2 14644.4 L 20774 13932.8 L 20774 13931.6 Z M 22372.4 23490.8 Q 17801.6 30690.8 3842 32484.8 Q 3548 31526 2957.6 30740 Q 16523.6 29265.2 20727.2 22703.6 L 22373.6 23490.8 L 22372.4 23490.8 Z M 14877.2 10096.4 L 14877.2 25112 L 13083.2 25112 L 13083.2 10096.4 L 14877.2 10096.4 Z M 39232.4 25112 L 39232.4 20246 L 33726.8 20246 L 33726.8 25112 L 39232.4 25112 Z M 49971.2 26882 L 41075.6 26882 L 41075.6 32511.2 L 39232.4 32511.2 L 39232.4 26882 L 27876.8 26882 L 27876.8 25112 L 31907.6 25112 L 31907.6 18526.4 L 39232.4 18526.4 L 39232.4 14790.8 L 33260 14790.8 Q 31589.6 17642 29524.4 19632.8 Q 28541.6 18772.4 27951.2 18478.4 Q 31637.6 15258.8 33480.8 9999.2 L 35324 10440.8 Q 34858.4 11621.6 34194.8 13022 L 48840.8 13022 L 48840.8 14792 L 41075.6 14792 L 41075.6 18527.6 L 48275.6 18527.6 L 48275.6 20247.2 L 41075.6 20247.2 L 41075.6 25113.2 L 49971.2 25113.2 L 49971.2 26883.2 L 49971.2 26882 Z M 71426 22727.6 L 71426 16215.2 L 64373.6 16215.2 L 64373.6 22727.6 L 71426 22727.6 Z M 62480 22727.6 L 62480 16215.2 L 55451.6 16215.2 L 55451.6 22727.6 L 62480 22727.6 Z M 73294.4 14422.4 L 73294.4 25923.2 L 71426 25923.2 L 71426 24522.8 L 64373.6 24522.8 L 64373.6 32484.8 L 62481.2 32484.8 L 62481.2 24522.8 L 55452.8 24522.8 L 55452.8 26045.6 L 53658.8 26045.6 L 53658.8 14421.2 L 62481.2 14421.2 L 62481.2 10047.2 L 64373.6 10047.2 L 64373.6 14421.2 L 73295.6 14421.2 L 73294.4 14422.4 Z M 94822.4 25775.6 L 94822.4 27324.8 L 81429.2 27324.8 L 81429.2 25775.6 L 87082.4 25775.6 L 87082.4 21647.6 L 82461.2 21647.6 L 82461.2 20074.4 L 87082.4 20074.4 L 87082.4 16583.6 L 81773.6 16583.6 L 81773.6 14937.2 L 94331.6 14937.2 L 94331.6 16583.6 L 88802 16583.6 L 88802 20074.4 L 93717.2 20074.4 L 93717.2 21647.6 L 88802 21647.6 L 88802 25775.6 L 94822.4 25775.6 Z M 91504.4 22089.2 Q 93200 23564 93987.2 24767.6 L 92733.2 25505.6 Q 92045.6 24376.4 90350 22728.8 L 91505.6 22090.4 L 91504.4 22089.2 Z M 96248 29585.6 L 96248 12873.2 L 79806.8 12873.2 L 79806.8 29585.6 L 96248 29585.6 Z M 98140.4 11177.6 L 98140.4 32510 L 96248 32510 L 96248 31281.2 L 79806.8 31281.2 L 79806.8 32510 L 77987.6 32510 L 77987.6 11177.6 L 98141.6 11177.6 L 98140.4 11177.6 Z M 106889.6 15675.2 Q 105734 14028.8 103203.2 11694.8 L 104406.8 10589.6 Q 107208.8 13071.2 108167.6 14373.2 L 106890.8 15675.2 L 106889.6 15675.2 Z M 109715.6 25529.6 Q 109961.6 26390 110355.2 27152 Q 105194 30938 104751.2 31527.2 Q 104309.6 30520.4 103695.2 29906 Q 105120.8 28947.2 105120.8 27642.8 L 105120.8 19508 L 101558 19508 L 101558 17738 L 106938.8 17738 L 106938.8 27495.2 L 109716.8 25528.4 L 109715.6 25529.6 Z M 111584 21057.2 L 119889.2 21057.2 L 119889.2 16608.8 L 111584 16608.8 L 111584 21057.2 Z M 121438.4 30444.8 Q 121880 30444.8 122028.8 29930 Q 122176.4 29388.8 122200.4 27448.4 Q 122838.8 27914 123822.8 28160 Q 123699.2 30544.4 123232.4 31355.6 Q 122790.8 32166.8 121610 32166.8 L 119177.6 32166.8 Q 117849.2 32166.8 117382.4 31649.6 Q 116940.8 31158.8 116940.8 29733.2 L 116940.8 22704.8 L 114729.2 22704.8 Q 114408.8 26612 113327.6 28677.2 Q 111975.2 31232 108806 32534 Q 108339.2 31625.6 107700.8 31134.8 Q 110526.8 30053.6 111731.6 27840.8 Q 112664 26070.8 112910 22704.8 L 109814 22704.8 L 109814 14963.6 L 113057.6 14963.6 Q 112370 12874.4 110820.8 10761.2 L 112370 10122.8 Q 114041.6 12284 114680 14276 L 113106.8 14963.6 L 117234.8 14963.6 Q 118587.2 12382.4 119325.2 10072.4 L 121217.6 10686.8 Q 119915.6 13611.2 119177.6 14963.6 L 121708.4 14963.6 L 121708.4 22704.8 L 118733.6 22704.8 L 118733.6 29709.2 Q 118733.6 30176 118857.2 30323.6 Q 118980.8 30444.8 119422.4 30444.8 L 121438.4 30444.8 Z " fill-rule="nonzero" style="fill:#f64747;;fill-opacity:1;"/>
</svg>