<svg version="1.1" x="0" y="0" width="100%" height="100%" viewBox="0 0 284518.4 201523.2" xmlns="http://www.w3.org/2000/svg">
  <path d="M 26143.5 65585.9 L 26143.5 84494.4 L 41191 84494.4 L 41191 65585.9 L 26143.5 65585.9 Z M 41184.5 118170.9 L 41184.5 98599.4 L 26137 98599.4 L 26137 118170.9 L 41184.5 118170.9 Z M 26143.5 132542.4 L 26143.5 143988.9 L 11505.5 143988.9 L 11505.5 51214.4 L 55829 51214.4 L 55829 132542.4 L 26143.5 132542.4 Z M 110136.5 112314.4 L 110136.5 95277.9 L 83909 95277.9 L 83909 97403.4 Q 83909 105391.9 83382.5 112314.4 L 110136.5 112314.4 Z M 83915.5 63986.9 L 83915.5 81023.4 L 110143 81023.4 L 110143 63986.9 L 83915.5 63986.9 Z M 125853.5 150118.4 Q 125853.5 161694.9 118931 165289.4 Q 112944.5 168220.9 94842 168220.9 Q 93646 160498.9 89382 152913.4 Q 99502.5 153439.9 106815 153043.4 Q 110143 153043.4 110143 149981.9 L 110143 126549.4 L 81523.5 126549.4 Q 75933.5 154908.9 58624 169020.4 Q 53560.5 162630.9 46508 158763.4 Q 68341.5 140797.4 68341.5 97396.9 L 68341.5 49342.4 L 125853.5 49342.4 L 125853.5 150118.4 Z M 263894 126692.4 L 223561.5 126692.4 Q 228085.5 134277.9 231153.5 140803.9 L 218901 145197.9 Q 216905.5 140134.4 210919 128954.4 L 217705 126692.4 L 178035.5 126692.4 L 178035.5 114036.9 L 263894 114036.9 L 263894 126692.4 Z M 236743.5 96870.4 L 246461 96870.4 L 246461 83954.9 L 236743.5 83954.9 L 236743.5 96870.4 Z M 226090 83954.9 L 216775.5 83954.9 L 216775.5 96870.4 L 226090 96870.4 L 226090 83954.9 Z M 205992 83954.9 L 196937.5 83954.9 L 196937.5 96870.4 L 205992 96870.4 L 205992 83954.9 Z M 211445.5 72774.9 L 212245 65982.4 L 179771 65982.4 L 179771 53476.4 L 213311 53476.4 Q 213577.5 50011.9 213844 43622.4 L 230614 44148.9 L 229288 53476.4 L 263367.5 53476.4 L 263367.5 65982.4 L 227559 65982.4 L 226493 72774.9 L 259376.5 72774.9 L 259376.5 108050.4 L 184568 108050.4 L 184568 72774.9 L 211452 72774.9 L 211445.5 72774.9 Z M 178828.5 49881.9 Q 164320.5 71182.4 146218 87016.4 Q 143286.5 80496.9 138892.5 73970.9 Q 155402.5 60132.4 164717 44148.9 L 178828.5 49875.4 L 178828.5 49881.9 Z M 181090.5 78364.9 Q 176696.5 87412.9 170840 96870.4 L 170976.5 96870.4 L 170976.5 168350.9 L 156202 168350.9 L 156202 117631.4 Q 151678 123487.9 146614.5 128551.4 Q 142487 120029.9 137963 113770.4 Q 156065.5 96590.9 166979 73294.9 L 181090.5 78358.4 L 181090.5 78364.9 Z M 171906 156644.4 Q 178562 147856.4 182286.5 132015.9 L 194272.5 136676.4 Q 189612 154778.9 183755.5 163430.4 L 171906 156644.4 Z M 228222 154778.9 Q 231010.5 154778.9 231946.5 152776.9 Q 232876 150781.4 233142.5 143728.9 Q 237666.5 146790.4 245258.5 148382.9 Q 244192.5 159036.4 240864.5 162903.9 Q 237666.5 166491.9 229814.5 166491.9 L 213304.5 166491.9 Q 203190.5 166491.9 199596 163163.9 Q 196268 159972.4 196268 151184.4 L 196268 134940.9 L 210119.5 134940.9 L 210119.5 151054.4 Q 210119.5 153446.4 211049 154115.9 Q 211985 154785.4 215313 154785.4 L 228228.5 154785.4 L 228222 154778.9 Z M 250978.5 131216.4 Q 261898.5 145854.4 265090 156377.9 L 252714 161967.9 Q 249782.5 150391.4 239402 136409.9 L 250978.5 131216.4 Z " fill-rule="nonzero" style="fill:#323232;;fill-opacity:1;"/>
</svg>