<svg version="1.1" x="0" y="0" width="100%" height="100%" viewBox="0 0 295884.8 40550.4" xmlns="http://www.w3.org/2000/svg">
  <path d="M 14409.2 14152.4 L 3644 14152.4 L 3644 12627.2 L 8462 12627.2 Q 7896.8 11301.2 7379.6 10392.8 L 9026 9975.2 Q 9886.4 11522 10328 12627.2 L 14408 12627.2 L 14408 14152.4 L 14409.2 14152.4 Z M 6939.2 25185.2 Q 6054.8 27815.6 4408.4 29806.4 Q 3621.2 29168 3154.4 28871.6 Q 4629.2 27274.4 5440.4 24792.8 L 6939.2 25185.2 Z M 6717.2 14322.8 Q 7577.6 16191.2 7750.4 17764.4 L 6201.2 18182 Q 6028.4 16535.6 5242.4 14667.2 L 6716 14322.8 L 6717.2 14322.8 Z M 9938 23883.2 L 9938 30126.8 Q 9938 31330.4 9224 31674.8 Q 8609.6 31971.2 6642.8 31971.2 Q 6521.6 31209.2 6102.8 30422 Q 7504.4 30471.2 7971.2 30422 Q 8265.2 30422 8265.2 30101.6 L 8265.2 23884.4 L 3374 23884.4 L 3374 22311.2 L 8265.2 22311.2 L 8265.2 19732.4 L 3252.8 19732.4 L 3252.8 18183.2 L 10035.2 18183.2 Q 10870.4 16167.2 11361.2 14276 L 13032.8 14644.4 Q 12245.6 16856 11680.4 18184.4 L 14801.6 18184.4 L 14801.6 19733.6 L 9935.6 19733.6 L 9935.6 22312.4 L 14506.4 22312.4 L 14506.4 23885.6 L 9935.6 23885.6 L 9938 23883.2 Z M 12172.4 24694.4 Q 13671.2 26980.4 14212.4 28553.6 L 12934.4 29291.6 Q 12272 27521.6 10919.6 25334 L 12172.4 24694.4 Z M 25518.8 20000 L 22815.2 20000 L 22815.2 32387.6 L 21045.2 32387.6 L 21045.2 20000 L 17334.8 20000 L 17334.8 20787.2 Q 17334.8 28650.8 14777.6 32264 Q 14163.2 31600.4 13377.2 31158.8 Q 15638 27890 15638 20787.2 L 15638 12406.4 Q 20626.4 11595.2 23280.8 10490 L 24730.4 11842.4 Q 21904.4 12898.4 17333.6 13612.4 L 17333.6 18281.6 L 25517.6 18281.6 L 25517.6 20001.2 L 25518.8 20000 Z M 30407.6 18968 L 28664 18968 L 28664 14126 L 32718.8 14126 Q 32056.4 12725.6 30605.6 11006 L 32130.8 10292 Q 33825.2 12234.8 34464.8 13635.2 L 33530 14126 L 38912 14126 Q 38321.6 12332 37068.8 10464.8 L 38642 9874.4 Q 40164.8 11987.6 40631.6 13610 L 39378.8 14124.8 L 43385.6 14124.8 Q 44883.2 12257.6 45867.2 10217.6 L 47710.4 10857.2 Q 46554.8 12576.8 45326 14123.6 L 49332.8 14123.6 L 49332.8 18965.6 L 47537.6 18965.6 L 47537.6 15772.4 L 30407.6 15772.4 L 30407.6 18965.6 L 30407.6 18968 Z M 49774.4 25554.8 L 39772.4 25554.8 L 39772.4 30249.2 Q 39772.4 31772 38591.6 32140.4 Q 37632.8 32460.8 34070 32460.8 Q 33922.4 31870.4 33308 30690.8 Q 36380 30814.4 37314.8 30714.8 Q 37953.2 30690.8 37953.2 30224 L 37953.2 25554.8 L 28172 25554.8 L 28172 23859.2 L 37953.2 23859.2 L 37953.2 22089.2 Q 40066.4 21327.2 42203.6 19901.6 L 32276 19901.6 L 32276 18279.2 L 44294 18279.2 L 44638.4 18182 L 45843.2 19090.4 Q 43557.2 21179.6 39773.6 22875.2 L 39773.6 23858 L 49775.6 23858 L 49775.6 25553.6 L 49774.4 25554.8 Z M 68796.8 24153.2 Q 68550.8 24226.4 54468.8 29117.6 L 53805.2 27274.4 Q 59064.8 25701.2 68453.6 22432.4 L 68798 24152 L 68796.8 24153.2 Z M 58179.2 15626 Q 62726 18723.2 64692.8 20541.2 L 63390.8 21942.8 Q 61398.8 19952 56950.4 16806.8 L 58179.2 15626 Z M 72950 12873.2 Q 72728 29658.8 71672 31084.4 Q 70984.4 32140.4 69632 32240 Q 68476.4 32363.6 65698.4 32214.8 Q 65698.4 31306.4 65109.2 30471.2 Q 66828.8 30594.8 68992.4 30594.8 Q 69680 30594.8 69974 30201.2 Q 70908.8 29193.2 71105.6 13612.4 L 54196.4 13612.4 L 54196.4 11842.4 L 72948.8 11842.4 L 72948.8 12874.4 L 72950 12873.2 Z M 110255.6 14152.4 L 99490.4 14152.4 L 99490.4 12627.2 L 104308.4 12627.2 Q 103743.2 11301.2 103226 10392.8 L 104872.4 9975.2 Q 105732.8 11522 106174.4 12627.2 L 110254.4 12627.2 L 110254.4 14152.4 L 110255.6 14152.4 Z M 102785.6 25185.2 Q 101901.2 27815.6 100254.8 29806.4 Q 99467.6 29168 99000.8 28871.6 Q 100475.6 27274.4 101286.8 24792.8 L 102785.6 25185.2 Z M 102563.6 14322.8 Q 103424 16191.2 103596.8 17764.4 L 102047.6 18182 Q 101874.8 16535.6 101088.8 14667.2 L 102562.4 14322.8 L 102563.6 14322.8 Z M 105784.4 23883.2 L 105784.4 30126.8 Q 105784.4 31330.4 105070.4 31674.8 Q 104456 31971.2 102489.2 31971.2 Q 102368 31209.2 101949.2 30422 Q 103350.8 30471.2 103817.6 30422 Q 104111.6 30422 104111.6 30101.6 L 104111.6 23884.4 L 99220.4 23884.4 L 99220.4 22311.2 L 104111.6 22311.2 L 104111.6 19732.4 L 99099.2 19732.4 L 99099.2 18183.2 L 105881.6 18183.2 Q 106716.8 16167.2 107207.6 14276 L 108879.2 14644.4 Q 108092 16856 107526.8 18184.4 L 110648 18184.4 L 110648 19733.6 L 105782 19733.6 L 105782 22312.4 L 110352.8 22312.4 L 110352.8 23885.6 L 105782 23885.6 L 105784.4 23883.2 Z M 108018.8 24694.4 Q 109517.6 26980.4 110058.8 28553.6 L 108780.8 29291.6 Q 108118.4 27521.6 106766 25334 L 108018.8 24694.4 Z M 121365.2 20000 L 118661.6 20000 L 118661.6 32387.6 L 116891.6 32387.6 L 116891.6 20000 L 113181.2 20000 L 113181.2 20787.2 Q 113181.2 28650.8 110624 32264 Q 110009.6 31600.4 109223.6 31158.8 Q 111484.4 27890 111484.4 20787.2 L 111484.4 12406.4 Q 116472.8 11595.2 119127.2 10490 L 120576.8 11842.4 Q 117750.8 12898.4 113180 13612.4 L 113180 18281.6 L 121364 18281.6 L 121364 20001.2 L 121365.2 20000 Z M 130360.4 10784 Q 128123.6 14201.6 124634 16634 Q 124216.4 15848 123675.2 15160.4 Q 126944 12972.8 128638.4 10121.6 L 130360.4 10784 Z M 130751.6 16166 Q 129965.6 17591.6 128736.8 19238 L 128736.8 32484.8 L 126893.6 32484.8 L 126893.6 21474.8 Q 125788.4 22752.8 124313.6 23956.4 Q 123872 22924.4 123330.8 22188.8 Q 127017.2 19434.8 129154.4 15551.6 L 130751.6 16166 Z M 146038.4 30076.4 L 146038.4 31822.4 L 130334 31822.4 L 130334 30076.4 L 132767.6 30076.4 L 132767.6 18378.8 L 134537.6 18378.8 L 134537.6 30076.4 L 137954 30076.4 L 137954 13635.2 L 131883.2 13635.2 L 131883.2 11915.6 L 145227.2 11915.6 L 145227.2 13635.2 L 139746.8 13635.2 L 139746.8 20566.4 L 144834.8 20566.4 L 144834.8 22262 L 139746.8 22262 L 139746.8 30076.4 L 146038.4 30076.4 Z M 167272.4 12479.6 L 159482 12479.6 L 159482 16559.6 L 167272.4 16559.6 L 167272.4 12479.6 Z M 169041.2 18156.8 L 157761.2 18156.8 L 157761.2 10907.6 L 169041.2 10907.6 L 169041.2 18156.8 Z M 155451.2 25038.8 Q 155033.6 24006.8 153657.2 21549.2 L 153657.2 32511.2 L 151937.6 32511.2 L 151937.6 22163.6 Q 150438.8 26267.6 148913.6 28234.4 Q 148668.8 27522.8 147954.8 26490.8 Q 150215.6 23566.4 151666.4 18772.4 L 148494.8 18772.4 L 148494.8 17052.8 L 151936.4 17052.8 L 151936.4 13096.4 Q 150804.8 13342.4 149306 13612.4 Q 149158.4 12998 148764.8 12162.8 Q 153090.8 11326.4 155252 10246.4 L 156407.6 11720 Q 155302.4 12237.2 153656 12678.8 L 153656 17052.8 L 156678.8 17052.8 L 156678.8 18772.4 L 153656 18772.4 L 153656 19338.8 Q 155326.4 21353.6 156628.4 23517.2 L 155448.8 25040 L 155451.2 25038.8 Z M 170442.8 30150.8 L 170442.8 31846.4 L 156212 31846.4 L 156212 30150.8 L 162652.4 30150.8 L 162652.4 26758.4 L 157884.8 26758.4 L 157884.8 25112 L 162652.4 25112 L 162652.4 21918.8 L 157294.4 21918.8 L 157294.4 20247.2 L 169902.8 20247.2 L 169902.8 21918.8 L 164446.4 21918.8 L 164446.4 25112 L 169361.6 25112 L 169361.6 26758.4 L 164446.4 26758.4 L 164446.4 30150.8 L 170442.8 30150.8 Z M 211631.6 14152.4 L 200866.4 14152.4 L 200866.4 12627.2 L 205684.4 12627.2 Q 205119.2 11301.2 204602 10392.8 L 206248.4 9975.2 Q 207108.8 11522 207550.4 12627.2 L 211630.4 12627.2 L 211630.4 14152.4 L 211631.6 14152.4 Z M 204161.6 25185.2 Q 203277.2 27815.6 201630.8 29806.4 Q 200843.6 29168 200376.8 28871.6 Q 201851.6 27274.4 202662.8 24792.8 L 204161.6 25185.2 Z M 203939.6 14322.8 Q 204800 16191.2 204972.8 17764.4 L 203423.6 18182 Q 203250.8 16535.6 202464.8 14667.2 L 203938.4 14322.8 L 203939.6 14322.8 Z M 207160.4 23883.2 L 207160.4 30126.8 Q 207160.4 31330.4 206446.4 31674.8 Q 205832 31971.2 203865.2 31971.2 Q 203744 31209.2 203325.2 30422 Q 204726.8 30471.2 205193.6 30422 Q 205487.6 30422 205487.6 30101.6 L 205487.6 23884.4 L 200596.4 23884.4 L 200596.4 22311.2 L 205487.6 22311.2 L 205487.6 19732.4 L 200475.2 19732.4 L 200475.2 18183.2 L 207257.6 18183.2 Q 208092.8 16167.2 208583.6 14276 L 210255.2 14644.4 Q 209468 16856 208902.8 18184.4 L 212024 18184.4 L 212024 19733.6 L 207158 19733.6 L 207158 22312.4 L 211728.8 22312.4 L 211728.8 23885.6 L 207158 23885.6 L 207160.4 23883.2 Z M 209394.8 24694.4 Q 210893.6 26980.4 211434.8 28553.6 L 210156.8 29291.6 Q 209494.4 27521.6 208142 25334 L 209394.8 24694.4 Z M 222741.2 20000 L 220037.6 20000 L 220037.6 32387.6 L 218267.6 32387.6 L 218267.6 20000 L 214557.2 20000 L 214557.2 20787.2 Q 214557.2 28650.8 212000 32264 Q 211385.6 31600.4 210599.6 31158.8 Q 212860.4 27890 212860.4 20787.2 L 212860.4 12406.4 Q 217848.8 11595.2 220503.2 10490 L 221952.8 11842.4 Q 219126.8 12898.4 214556 13612.4 L 214556 18281.6 L 222740 18281.6 L 222740 20001.2 L 222741.2 20000 Z M 230998.4 13390.4 L 225345.2 13390.4 L 225345.2 11817.2 L 230998.4 11817.2 L 230998.4 10071.2 L 232792.4 10071.2 L 232792.4 11817.2 L 239453.6 11817.2 L 239453.6 10071.2 L 241247.6 10071.2 L 241247.6 11817.2 L 247022 11817.2 L 247022 13390.4 L 241247.6 13390.4 L 241247.6 14889.2 L 239453.6 14889.2 L 239453.6 13390.4 L 232768.4 13390.4 L 232768.4 14864 L 230998.4 14864 L 230998.4 13390.4 Z M 246088.4 18796.4 L 238666.4 18796.4 Q 237731.6 21081.2 236381.6 22803.2 Q 235594.4 22139.6 234906.8 21795.2 Q 237044 19288.4 238101.2 15036.8 L 239820.8 15381.2 L 239279.6 17224.4 L 246087.2 17224.4 L 246087.2 18797.6 L 246088.4 18796.4 Z M 242572.4 24203.6 Q 241737.2 22040 239820.8 19878.8 L 241246.4 19164.8 Q 243186.8 21328.4 244071.2 23368.4 L 242572.4 24203.6 Z M 231636.8 15551.6 L 233430.8 15551.6 L 233430.8 23932.4 L 231636.8 23932.4 L 231636.8 15551.6 Z M 227115.2 23318 L 227115.2 16388 L 228834.8 16388 L 228834.8 23318 L 227115.2 23318 Z M 229473.2 30249.2 L 232865.6 30249.2 L 232865.6 26242.4 L 229473.2 26242.4 L 229473.2 30249.2 Z M 234464 26243.6 L 234464 30250.4 L 237854 30250.4 L 237854 26243.6 L 234464 26243.6 Z M 239427.2 26243.6 L 239427.2 30250.4 L 242892.8 30250.4 L 242892.8 26243.6 L 239427.2 26243.6 Z M 247242.8 30249.2 L 247242.8 31846.4 L 225075.2 31846.4 L 225075.2 30249.2 L 227778.8 30249.2 L 227778.8 24767.6 L 244661.6 24767.6 L 244661.6 30249.2 L 247242.8 30249.2 Z M 256089.2 25605.2 Q 261545.6 26219.6 265970 27718.4 L 265134.8 29068.4 Q 260834 27521.6 255255.2 26858 L 256090.4 25605.2 L 256089.2 25605.2 Z M 258425.6 22654.4 Q 261645.2 23294 264224 24449.6 L 263462 25678.4 Q 261029.6 24473.6 257687.6 23762 L 258425.6 22654.4 Z M 257735.6 16806.8 Q 258940.4 18132.8 260856.8 19214 Q 262920.8 18034.4 264222.8 16658 L 257883.2 16658 L 257734.4 16805.6 L 257735.6 16806.8 Z M 266781.2 15798.8 Q 265331.6 18083.6 262407.2 20000 Q 265185.2 21328.4 268575.2 21942.8 Q 267986 22533.2 267567.2 23319.2 Q 264004.4 22557.2 260908.4 20885.6 Q 257542.4 22704.8 253634 23589.2 Q 253265.6 22704.8 252774.8 22090.4 Q 256043.6 21500 259360.4 19977.2 Q 257813.6 18945.2 256706 17789.6 Q 255526.4 18846.8 254470.4 19534.4 Q 253830.8 18846.8 253216.4 18428 Q 256755.2 16340 258622.4 13317.2 L 260121.2 13808 Q 259803.2 14397.2 259139.6 15233.6 L 265455.2 15233.6 L 265751.6 15160.4 L 266783.6 15798.8 L 266781.2 15798.8 Z M 269066 29855.6 L 269066 12800 L 252329.6 12800 L 252329.6 29855.6 L 269066 29855.6 Z M 270861.2 11129.6 L 270861.2 32510 L 269066 32510 L 269066 31478 L 252329.6 31478 L 252329.6 32510 L 250559.6 32510 L 250559.6 11129.6 L 270860 11129.6 L 270861.2 11129.6 Z " fill-rule="nonzero" style="fill:#d2527f;;fill-opacity:1;"/>
</svg>