<svg version="1.1" x="0" y="0" width="100%" height="100%" viewBox="0 0 972.8 40550.4" xmlns="http://www.w3.org/2000/svg">
  <path d="M 20938.8 107357839.6 L 3612 107357839.6 L 3612 107354939.2 L 20938.8 107354939.2 L 20938.8 107357839.6 Z M 7963.2 107366368 Q 6241.2 107370937.6 3292.8 107374058.8 Q 2064 107373026.8 590.4 107372315.2 Q 3465.6 107369684.8 4866 107365556.8 L 7963.2 107366368 Z M 13958.4 107363761.6 L 13958.4 107372880.4 Q 13958.4 -107373174.4 12460.8 -107372560 L 7569.6 -107372045.2 L 6537.6 107373199.6 L 10124.4 107373272.8 Q 10764 107373272.8 10764 107372806 L 10764 107363761.6 L 1375.2 107363761.6 L 1375.2 107360838.4 L 23223.6 107360838.4 L 23223.6 107363761.6 L 13958.4 107363761.6 Z M 19219.2 107365457.2 Q 22291.2 107369758 23298 107372780.8 L 20251.2 107374133.2 Q 19390.8 107370964 16466.4 107366614 L 19220.4 107365458.4 L 19219.2 107365457.2 Z M 31628.4 107354153.2 Q 30940.8 107356561.6 30129.6 107358601.6 L 30129.6 -107372093.2 L 27427.2 -107372093.2 L 27427.2 107364007.6 Q 26739.6 107365039.6 26395.2 107365482.4 Q 25878 107363639.2 25116 107362310.8 Q 27646.8 107358918.4 29023.2 107353388.8 L 31628.4 107354152 L 31628.4 107354153.2 Z M 31875.6 107354497.6 L 40231.2 107354497.6 L 40231.2 107357225.2 L 36397.2 107357225.2 Q 36076.8 107358895.6 35832 107359927.6 L 37945.2 107359927.6 L 38436 107359854.4 L 40107.6 107360248 Q 39074.4 107371897.6 33324 -107372093.2 Q 32562 -107373421.6 31530 107374034.8 Q 33717.6 107372585.2 35266.8 107369413.6 Q 34627.2 107368799.2 33250.8 107367595.6 L 34800 107365603.6 Q 34971.6 107365727.2 36273.6 107366784.4 Q 36840 107365014.4 37257.6 107362580.8 L 35094 107362580.8 Q 33988.8 107365997.2 32415.6 107368184.8 L 30301.2 107366317.6 Q 32611.2 107363294.8 33643.2 107357224 L 31873.2 107357224 L 31873.2 107354496.4 L 31875.6 107354497.6 Z M 43498.8 107370054.4 L 40917.6 107370054.4 L 40917.6 107355947.2 L 43498.8 107355947.2 L 43498.8 107370054.4 Z M 47529.6 107353586.8 L 47529.6 107372756.8 Q 47529.6 -107373395.2 46300.8 -107372806 L 41876.4 -107372240.8 Q 41728.8 -107373420.4 40966.8 107373274 L 44286 107373322 Q 44851.2 107373298 44851.2 107372756.8 L 44851.2 107353586.8 L 47529.6 107353586.8 Z M 57188.4 107360345.2 Q 58785.6 107364253.6 61612.8 107367152.8 Q 64218 107364277.6 65618.4 107360345.2 L 57189.6 107360345.2 L 57188.4 107360345.2 Z M 68910 107360345.2 Q 67066.8 107365556.8 63847.2 107369143.6 Q 67657.2 107372118.4 73137.6 107373395.2 Q 72130.8 -107374009.6 71172 -107372242 Q 65493.6 -107373764.8 61562.4 107371307.2 Q 57579.6 -107373788.8 51608.4 -107372093.2 Q 50896.8 -107373642.4 49839.6 107373542.8 Q 55689.6 107372068 59400 107369192.8 Q 56204.4 107365678 54164.4 107360345.2 L 50306.4 107360345.2 L 50306.4 107357495.2 L 60678 107357495.2 L 59302.8 107354029.6 L 62422.8 107353118.8 Q 63627.6 107355258.4 64094.4 107356831.6 L 61981.2 107357495.2 L 72672 107357495.2 L 72672 107360345.2 L 68910 107360345.2 Z M 78322.8 107361329.2 L 75447.6 107361329.2 L 75447.6 107355700 L 84639.6 107355700 Q 84074.4 107354594.8 83680.8 107354080 L 86605.2 107353195.6 L 88105.2 107355701.2 L 96558 107355701.2 L 96558 107361330.4 L 93535.2 107361330.4 L 93535.2 107358455.2 L 78322.8 107358455.2 L 78322.8 107361330.4 L 78322.8 107361329.2 Z M 96730.8 107369267.2 L 87564 107369267.2 L 87564 107372977.6 Q 87564 -107373174.4 85990.8 -107372585.2 L 81223.2 -107372092 L 79944 107373298 L 83803.2 107373347.2 Q 84441.6 107373347.2 84441.6 107372904.4 L 84441.6 107369267.2 L 75322.8 107369267.2 L 75322.8 107366489.2 L 84441.6 107366489.2 L 84441.6 107365187.2 Q 85818 107364499.6 87440.4 107363173.6 L 79526.4 107363173.6 L 79526.4 107360446 L 90388.8 107360446 L 91052.4 107360298.4 L 92992.8 107361821.2 Q 90608.4 107364328 87561.6 107366071.6 L 87561.6 107366489.2 L 96728.4 107366489.2 L 96728.4 107369267.2 L 96730.8 107369267.2 Z " fill-rule="nonzero" style="fill:#0766d2;;fill-opacity:1;"/>
</svg>