<svg version="1.1" x="0" y="0" width="100%" height="100%" viewBox="0 0 114636.8 40550.4" xmlns="http://www.w3.org/2000/svg">
  <path d="M 15958.4 15306.8 Q 15318.8 13536.8 13721.6 11128.4 L 15171.2 10438.4 Q 16842.8 12798.8 17505.2 14544.8 L 15958.4 15306.8 Z M 24534.8 17346.8 L 12370.4 17346.8 L 12370.4 15576.8 L 19128.8 15576.8 Q 20603.6 13240.4 21708.8 10217.6 L 23502.8 10808 Q 21905.6 14003.6 20921.6 15576.8 L 24534.8 15576.8 L 24534.8 17346.8 Z M 13353.2 24056 L 13353.2 22286 L 23404.4 22286 L 23404.4 24056 L 13353.2 24056 Z M 10600.4 23294 Q 10133.6 22162.4 8660 19631.6 L 8660 32484.8 L 6914 32484.8 L 6914 20811.2 Q 5561.6 25161.2 3915.2 27521.6 Q 3670.4 26734.4 2956.4 25751.6 Q 5463.2 22482.8 6839.6 16486.4 L 3743.6 16486.4 L 3743.6 14766.8 L 6912.8 14766.8 L 6912.8 10048.4 L 8658.8 10048.4 L 8658.8 14766.8 L 11484.8 14766.8 L 11484.8 16486.4 L 8658.8 16486.4 L 8658.8 17198 Q 10722.8 20000 11828 21843.2 L 10599.2 23294 L 10600.4 23294 Z M 25322 29412.8 L 25322 31182.8 L 11362.4 31182.8 L 11362.4 29412.8 L 25322 29412.8 Z M 35004.8 23024 Q 34660.4 22139.6 33234.8 19436 L 33234.8 32486 L 31515.2 32486 L 31515.2 20271.2 Q 30113.6 25065.2 28443.2 27497.6 Q 28049.6 26490.8 27508.4 25752.8 Q 30015.2 22631.6 31391.6 16487.6 L 28122.8 16487.6 L 28122.8 14768 L 31515.2 14768 L 31515.2 10049.6 L 33234.8 10049.6 L 33234.8 14768 L 36159.2 14768 L 36159.2 16487.6 L 33234.8 16487.6 L 33234.8 17225.6 Q 34684.4 19216.4 36086 21624.8 L 35004.8 23026.4 L 35004.8 23024 Z M 41272.4 18944 Q 42279.2 22827.2 44049.2 25578.8 Q 46016 22727.6 46876.4 18944 L 41273.6 18944 L 41272.4 18944 Z M 48939.2 17567.6 Q 47955.2 23244.8 45129.2 27128 Q 47366 29879.6 50290.4 30984.8 Q 49454 31722.8 49061.6 32558 Q 46137.2 31208 44000 28553.6 Q 41639.6 31084.4 38543.6 32510 Q 38050.4 31599.2 37436 31010 Q 40581.2 29732 42917.6 27028.4 Q 40852.4 23784.8 39648.8 18942.8 L 38934.8 18942.8 Q 38837.6 28011.2 35666 32582 Q 34954.4 31820 34192.4 31550 Q 37140.8 27322.4 37140.8 18303.2 L 37140.8 12356 Q 44807.6 11913.2 48125.6 10536.8 L 49354.4 11962.4 Q 46012.4 13338.8 38933.6 13853.6 L 38933.6 17271.2 L 47487.2 17271.2 L 47805.2 17222 L 48936.8 17566.4 L 48939.2 17567.6 Z M 56556.8 12824 L 56556.8 15330.8 L 71181.2 15330.8 L 71181.2 12824 L 56556.8 12824 Z M 56556.8 16928 L 56556.8 18378.8 Q 56556.8 27939.2 53681.6 32534 Q 52919.6 31870.4 52084.4 31600.4 Q 54738.8 27423.2 54738.8 18380 L 54738.8 11228 L 72998 11228 L 72998 16929.2 L 56556.8 16929.2 L 56556.8 16928 Z M 62750 23538.8 L 67641.2 23538.8 L 67641.2 20960 L 62750 20960 L 62750 23538.8 Z M 73170.8 26219.6 Q 71424.8 27545.6 69263.6 28701.2 Q 71499.2 30347.6 74744 31011.2 Q 74080.4 31600.4 73613.6 32535.2 Q 67002.8 30864.8 64472 25138.4 L 61082 25138.4 L 61082 30150.8 L 66365.6 28971.2 Q 66218 29906 66291.2 30495.2 Q 59435.6 32166.8 58894.4 32535.2 Q 58770.8 31823.6 58180.4 30987.2 Q 59361.2 30324.8 59361.2 29120 L 59361.2 25139.6 L 56706.8 25139.6 L 56706.8 23541.2 L 61031.6 23541.2 L 61031.6 20962.4 L 57369.2 20962.4 L 57369.2 19388 L 61031.6 19388 L 61031.6 17176.4 L 62751.2 17176.4 L 62751.2 19388 L 67642.4 19388 L 67642.4 17176.4 L 69362 17176.4 L 69362 19388 L 73491.2 19388 L 73491.2 20962.4 L 69362 20962.4 L 69362 23541.2 L 74474 23541.2 L 74474 25139.6 L 66166.4 25139.6 Q 67001.6 26662.4 68133.2 27743.6 Q 70566.8 26294 71795.6 25286 L 73172 26220.8 L 73170.8 26219.6 Z M 96665.6 13684.4 L 79511.6 13684.4 L 79511.6 11890.4 L 96665.6 11890.4 L 96665.6 13684.4 Z M 83469.2 22482.8 Q 81552.8 27274.4 78381.2 30273.2 Q 77669.6 29658.8 76734.8 29168 Q 79856 26464.4 81599.6 21992 L 83468 22482.8 L 83469.2 22482.8 Z M 94208 22016 Q 97500.8 26219.6 98632.4 29487.2 L 96838.4 30274.4 Q 95682.8 26882 92537.6 22704.8 L 94208 22017.2 L 94208 22016 Z M 98829.2 17812.4 L 98829.2 19607.6 L 89072 19607.6 L 89072 30125.6 Q 89072 31748 87916.4 32140.4 Q 86981.6 32460.8 83468 32460.8 Q 83295.2 31576.4 82804.4 30568.4 Q 85532 30641.6 86514.8 30593.6 Q 87129.2 30593.6 87129.2 30076.4 L 87129.2 19607.6 L 77324 19607.6 L 77324 17812.4 L 98828 17812.4 L 98829.2 17812.4 Z " fill-rule="nonzero" style="fill:#00b772;;fill-opacity:1;"/>
</svg>