<svg version="1.1" x="0" y="0" width="100%" height="100%" viewBox="0 0 63846.4 77004.8" xmlns="http://www.w3.org/2000/svg">
  <path d="M 13446.4 28528.4 Q 21312.4 21476 21312.4 17889.2 Q 21312.4 16511.6 20598.4 15725.6 Q 19860.4 14938.4 18583.6 14938.4 Q 16937.2 14938.4 15241.6 16806.8 L 13274.8 14840 Q 15880 12088.4 19051.6 12088.4 Q 21630.4 12088.4 23203.6 13611.2 Q 24776.8 15160.4 24776.8 17691.2 Q 24776.8 21843.2 18732.4 27766.4 Q 20551.6 27569.6 21680.8 27569.6 L 25637.2 27569.6 L 25637.2 30617.6 L 13446.4 30617.6 L 13446.4 28528.4 Z M 36929.2 22188.8 Q 36781.6 23294 36830.8 24546.8 Q 29702.8 25923.2 28768 26440.4 Q 28523.2 25408.4 27932.8 24006.8 Q 28572.4 23859.2 29948.8 22433.6 Q 30760 21525.2 32012.8 19853.6 Q 29261.2 20174 28597.6 20494.4 Q 28303.6 19362.8 27713.2 17889.2 Q 28254.4 17740.4 29189.2 16414.4 Q 30983.2 13980.8 32383.6 9729.2 L 34990 10934 Q 33440.8 14520.8 31228 17618 L 33637.6 17421.2 Q 34570 15896 35111.2 14889.2 L 37324 16313.6 Q 35160.4 19878.8 32605.6 22901.6 L 36930.4 22190 L 36929.2 22188.8 Z M 36756.4 29216 Q 33463.6 30176 28499.2 31452.8 L 27984.4 28677.2 Q 31376.8 28013.6 36439.6 26808.8 L 36757.6 29217.2 L 36756.4 29216 Z M 41280.4 29682.8 L 45654.4 29682.8 L 45654.4 25972.4 L 41280.4 25972.4 L 41280.4 29682.8 Z M 41280.4 13660.4 L 41280.4 17198 L 45654.4 17198 L 45654.4 13660.4 L 41280.4 13660.4 Z M 41280.4 23392.4 L 45654.4 23392.4 L 45654.4 19805.6 L 41280.4 19805.6 L 41280.4 23392.4 Z M 50520.4 29682.8 L 50520.4 32313.2 L 36340 32313.2 L 36340 29682.8 L 38503.6 29682.8 L 38503.6 11006 L 48554.8 11006 L 48554.8 29682.8 L 50521.6 29682.8 L 50520.4 29682.8 Z M 15602.8 58716.4 Q 15505.6 59404 15432.4 59722 Q 17005.6 61247.2 20052.4 64860.4 L 18088 67318 Q 16980.4 65572 14671.6 62696.8 Q 13246 66776.8 10026.4 69134.8 Q 9190 67832.8 7937.2 66924.4 Q 11917.6 64073.2 12655.6 58716.4 L 8305.6 58716.4 L 8305.6 55962.4 L 12852.4 55962.4 L 12852.4 52055.2 L 11869.6 52055.2 Q 11106.4 54022 10198 55348 Q 9116.8 54365.2 7840 53651.2 Q 9731.2 51120.4 10591.6 46254.4 L 13393.6 46819.6 Q 13123.6 48197.2 12779.2 49350.4 L 19267.6 49350.4 L 19267.6 52054 L 15802 52054 L 15802 55961.2 L 19832.8 55961.2 L 19832.8 58715.2 L 15605.2 58715.2 L 15602.8 58716.4 Z M 26885.2 63976 L 26885.2 51121.6 L 23320 51121.6 L 23320 63976 L 26885.2 63976 Z M 29857.6 48370 L 29857.6 68128 L 26885.2 68128 L 26885.2 66727.6 L 23320 66727.6 L 23320 68497.6 L 20494 68497.6 L 20494 48370 L 29857.6 48370 Z M 43964.8 53678.8 L 45317.2 53678.8 Q 46790.8 52547.2 47970.4 51442 L 43966 51442 L 43966 53678.8 L 43964.8 53678.8 Z M 49321.6 60607.6 L 40867.6 60607.6 L 40867.6 62180.8 L 49321.6 62180.8 L 49321.6 60607.6 Z M 49321.6 66064 L 49321.6 64393.6 L 40867.6 64393.6 L 40867.6 66064 L 49321.6 66064 Z M 46349.2 56258.8 Q 44824 57338.8 43447.6 58223.2 L 52369.6 58223.2 L 52369.6 69134.8 L 49321.6 69134.8 L 49321.6 68496.4 L 40867.6 68496.4 L 40867.6 69234.4 L 37944.4 69234.4 L 37944.4 61198 Q 35756.8 62156.8 34182.4 62747.2 Q 33396.4 61394.8 32388.4 60337.6 Q 37156 58838.8 41530 56260 L 33174.4 56260 L 33174.4 53678.8 L 41062 53678.8 L 41062 51442 L 35287.6 51442 L 35287.6 48911.2 L 41062 48911.2 L 41062 46256.8 L 43962.4 46256.8 L 43962.4 48911.2 L 49295.2 48911.2 L 49295.2 50116 Q 50671.6 48617.2 51827.2 46994.8 L 54334 48272.8 Q 52268.8 51122.8 49493.2 53680 L 55194.4 53680 L 55194.4 56261.2 L 46348 56261.2 L 46349.2 56258.8 Z " fill-rule="nonzero" style="fill:#e56281;;fill-opacity:1;"/>
</svg>