<svg version="1.1" x="0" y="0" width="100%" height="100%" viewBox="0 0 349184 40550.4" xmlns="http://www.w3.org/2000/svg">
  <path d="M 21045.2 29438 L 21045.2 25799.6 L 7946 25799.6 L 7946 29438 L 21045.2 29438 Z M 7946 20517.2 L 7946 24080 L 21045.2 24080 L 21045.2 20517.2 L 7946 20517.2 Z M 7946 15134 L 7946 18796.4 L 21045.2 18796.4 L 21045.2 15134 L 7946 15134 Z M 22937.6 13390.4 L 22937.6 32411.6 L 21045.2 32411.6 L 21045.2 31158.8 L 7946 31158.8 L 7946 32535.2 L 6128 32535.2 L 6128 13391.6 L 12296 13391.6 Q 12959.6 11424.8 13253.6 10023.2 L 15342.8 10293.2 Q 14776.4 11891.6 14114 13390.4 L 22936.4 13390.4 L 22937.6 13390.4 Z M 49823.6 29906 L 49823.6 31700 L 28098.8 31700 L 28098.8 29906 L 37929.2 29906 L 37929.2 23883.2 L 30359.6 23883.2 L 30359.6 22113.2 L 37929.2 22113.2 L 37929.2 16732.4 L 29228 16732.4 L 29228 14937.2 L 40017.2 14937.2 Q 38444 13094 35838.8 11177.6 L 37313.6 10145.6 Q 40312.4 12309.2 41810 14103.2 L 40656.8 14938.4 L 48594.8 14938.4 L 48594.8 16733.6 L 39869.6 16733.6 L 39869.6 22114.4 L 47586.8 22114.4 L 47586.8 23884.4 L 39869.6 23884.4 L 39869.6 29907.2 L 49823.6 29907.2 L 49823.6 29906 Z M 55894.4 13438.4 Q 54959.6 15257.6 53903.6 16389.2 Q 53165.6 15922.4 52354.4 15552.8 Q 54394.4 13439.6 55353.2 9999.2 L 57123.2 10293.2 Q 56877.2 11204 56508.8 12063.2 L 63070.4 12063.2 L 63070.4 13439.6 L 59334.8 13439.6 Q 60122 14717.6 60416 15578 L 58866.8 16143.2 Q 58572.8 15184.4 57590 13438.4 L 55894.4 13438.4 Z M 58278.8 27890 L 58278.8 30250.4 L 70100 30250.4 L 70100 27890 L 58278.8 27890 Z M 58278.8 21278 L 58278.8 23367.2 L 68820.8 23367.2 L 68820.8 21278 L 58278.8 21278 Z M 58278.8 26464.4 L 71892.8 26464.4 L 71892.8 32460.8 L 70098.8 32460.8 L 70098.8 31673.6 L 58277.6 31673.6 L 58277.6 32510 L 56458.4 32510 L 56458.4 19877.6 L 70613.6 19877.6 L 70613.6 24767.6 L 58277.6 24767.6 L 58277.6 26463.2 L 58278.8 26464.4 Z M 63660.8 15036.8 Q 64372.4 16216.4 64642.4 16928 L 73588.4 16928 L 73588.4 20934.8 L 71769.2 20934.8 L 71769.2 18380 L 55524.8 18380 L 55524.8 20934.8 L 53754.8 20934.8 L 53754.8 16928 L 62775.2 16928 Q 62332.4 15872 62038.4 15381.2 L 63660.8 15036.8 Z M 74202.8 12088.4 L 74202.8 13438.4 L 69828.8 13438.4 Q 70763.6 14667.2 71181.2 15527.6 L 69706.4 16215.2 Q 69215.6 15035.6 67962.8 13437.2 L 66240.8 13437.2 Q 65529.2 14739.2 64791.2 15550.4 Q 64300.4 15132.8 63292.4 14691.2 Q 64938.8 12971.6 65676.8 10020.8 L 67446.8 10317.2 Q 67226 11103.2 66856.4 12087.2 L 74205.2 12087.2 L 74202.8 12088.4 Z M 84771.2 27422 L 77152.4 29979.2 L 76734.8 28136 Q 78554 27594.8 80027.6 27104 L 80027.6 20493.2 L 77225.6 20493.2 L 77225.6 18771.2 L 80027.6 18771.2 L 80027.6 13438.4 L 76980.8 13438.4 L 76980.8 11718.8 L 84598.4 11718.8 L 84598.4 13438.4 L 81772.4 13438.4 L 81772.4 18771.2 L 84254 18771.2 L 84254 20493.2 L 81772.4 20493.2 L 81772.4 26564 L 84450.8 25679.6 L 84771.2 27423.2 L 84771.2 27422 Z M 87473.6 20517.2 L 91209.2 20517.2 L 91209.2 17372 L 87473.6 17372 L 87473.6 20517.2 Z M 87473.6 15872 L 91209.2 15872 L 91209.2 12776 L 87473.6 12776 L 87473.6 15872 Z M 96542 12776 L 92782.4 12776 L 92782.4 15872 L 96542 15872 L 96542 12776 Z M 96542 17370.8 L 92782.4 17370.8 L 92782.4 20516 L 96542 20516 L 96542 17370.8 Z M 99443.6 30027.2 L 99443.6 31698.8 L 83616.8 31698.8 L 83616.8 30027.2 L 91086.8 30027.2 L 91086.8 26661.2 L 85509.2 26661.2 L 85509.2 24990.8 L 91086.8 24990.8 L 91086.8 22114.4 L 85803.2 22114.4 L 85803.2 11178.8 L 98288 11178.8 L 98288 22114.4 L 92930 22114.4 L 92930 24990.8 L 98656.4 24990.8 L 98656.4 26661.2 L 92930 26661.2 L 92930 30027.2 L 99443.6 30027.2 Z M 112689.2 30420.8 Q 114212 28380.8 115146.8 24522.8 L 116768 25088 Q 115638.8 29364.8 114336.8 31281.2 L 112690.4 30420.8 L 112689.2 30420.8 Z M 127091.6 30494 Q 128074.4 30494 128368.4 29952.8 Q 128664.8 29438 128762 27471.2 Q 129376.4 27912.8 130433.6 28158.8 Q 130236.8 30567.2 129622.4 31354.4 Q 128982.8 32140.4 127212.8 32140.4 L 121659.2 32140.4 Q 119546 32140.4 118834.4 31625.6 Q 118096.4 31134.8 118096.4 29636 L 118096.4 24278 L 119890.4 24278 L 119890.4 29610.8 Q 119890.4 30177.2 120234.8 30324.8 Q 120579.2 30496.4 121734.8 30496.4 L 127092.8 30496.4 L 127091.6 30494 Z M 126156.8 27054.8 Q 124362.8 24990.8 120724.4 22851.2 L 122002.4 21746 Q 125836.4 23982.8 127508 25826 L 126155.6 27054.8 L 126156.8 27054.8 Z M 131318 24276.8 Q 133702.4 28307.6 134610.8 30692 L 132816.8 31406 Q 131858 28554.8 129669.2 24892.4 L 131316.8 24278 L 131318 24276.8 Z M 134610.8 13587.2 L 134610.8 15330.8 L 124583.6 15330.8 L 124583.6 19484 L 133136 19484 L 133136 21203.6 L 114434 21203.6 L 114434 19484 L 122717.6 19484 L 122717.6 15330.8 L 112862 15330.8 L 112862 13587.2 L 122717.6 13587.2 L 122717.6 10048.4 L 124584.8 10048.4 L 124584.8 13587.2 L 134612 13587.2 L 134610.8 13587.2 Z M 137510 11350.4 L 145055.6 11350.4 L 145055.6 18477.2 L 139623.2 18477.2 L 139156.4 22409.6 L 144956 22409.6 L 144908 23220.8 Q 144414.8 30666.8 143531.6 31599.2 Q 142990.4 32238.8 141957.2 32312 Q 141098 32409.2 139082 32285.6 Q 139034 31326.8 138591.2 30615.2 Q 139967.6 30738.8 141172.4 30738.8 Q 141762.8 30738.8 142032.8 30468.8 Q 142695.2 29781.2 143088.8 24054.8 L 137214.8 24054.8 Q 137829.2 20688.8 138149.6 16805.6 L 143358.8 16805.6 L 143358.8 13046 L 137508.8 13046 L 137508.8 11350.4 L 137510 11350.4 Z M 151371.2 24670.4 L 151371.2 21180.8 L 148102.4 21180.8 L 148102.4 24670.4 L 151371.2 24670.4 Z M 153141.2 21180.8 L 153141.2 24670.4 L 156483.2 24670.4 L 156483.2 21180.8 L 153141.2 21180.8 Z M 148692.8 15921.2 L 155771.6 15921.2 L 155771.6 12922.4 L 148692.8 12922.4 L 148692.8 15921.2 Z M 158032.4 32706.8 Q 157908.8 32288 157343.6 31011.2 Q 152600 31404.8 145620.8 31895.6 L 145400 30125.6 Q 147636.8 30026 151371.2 29781.2 L 151371.2 26218.4 L 146481.2 26218.4 L 146481.2 19655.6 L 151371.2 19655.6 L 151371.2 17468 L 147022.4 17468 L 147022.4 11373.2 L 157515.2 11373.2 L 157515.2 17468 L 153141.2 17468 L 153141.2 19655.6 L 158180 19655.6 L 158180 26218.4 L 153141.2 26218.4 L 153141.2 29658.8 L 156483.2 29438 Q 155648 28061.6 155082.8 27274.4 L 156556.4 26660 Q 158866.4 29682.8 159628.4 31992.8 L 158031.2 32706.8 L 158032.4 32706.8 Z M 171449.6 21795.2 Q 170369.6 20860.4 167690 19041.2 Q 166289.6 21401.6 162800 22998.8 Q 162357.2 22212.8 161645.6 21746 Q 165626 20172.8 166584.8 17394.8 L 161866.4 17394.8 L 161866.4 15896 L 166905.2 15896 Q 166954.4 15578 166954.4 15011.6 L 166954.4 13587.2 L 164889.2 13587.2 Q 164177.6 14864 163342.4 15774.8 Q 162555.2 15208.4 161867.6 14890.4 Q 163686.8 13144.4 164645.6 9999.2 L 166292 10319.6 Q 166119.2 10934 165628.4 12113.6 L 172313.6 12113.6 L 172313.6 13588.4 L 168700.4 13588.4 L 168700.4 15012.8 Q 168700.4 15579.2 168651.2 15897.2 L 172928 15897.2 L 172928 17396 L 168381.2 17396 L 168260 17813.6 Q 170914.4 19239.2 172732.4 20541.2 L 171454.4 21795.2 L 171449.6 21795.2 Z M 167224.4 23932.4 L 167224.4 26242.4 L 178577.6 26242.4 L 178577.6 23932.4 L 167224.4 23932.4 Z M 178577.6 30100.4 L 178577.6 27668 L 167224.4 27668 L 167224.4 30100.4 L 178577.6 30100.4 Z M 165429.2 22433.6 L 180420.8 22433.6 L 180420.8 32460.8 L 178577.6 32460.8 L 178577.6 31600.4 L 167224.4 31600.4 L 167224.4 32511.2 L 165429.2 32511.2 L 165429.2 22434.8 L 165429.2 22433.6 Z M 180714.8 13684.4 L 175652 13684.4 L 175652 18893.6 L 180714.8 18893.6 L 180714.8 13684.4 Z M 182508.8 12038 L 182508.8 20566.4 L 173932.4 20566.4 L 173932.4 12038 L 182508.8 12038 Z M 206594 27866 Q 204579.2 24867.2 200229.2 20320.4 Q 198680 25678.4 194207.6 28036.4 Q 193690.4 27201.2 192952.4 26636 Q 198188 23956.4 199122.8 16632.8 L 193126.4 16632.8 L 193126.4 14862.8 L 199319.6 14862.8 Q 199416.8 13781.6 199516.4 10120.4 L 201359.6 10120.4 Q 201260 13289.6 201136.4 14862.8 L 208164.8 14862.8 L 208164.8 16632.8 L 200939.6 16632.8 Q 200891.6 17174 200694.8 18378.8 Q 205683.2 23220.8 208116.8 26710.4 L 206591.6 27866 L 206594 27866 Z M 190202 16092.8 Q 189366.8 14102 187203.2 11350.4 L 188752.4 10588.4 Q 190865.6 13046 191824.4 15207.2 L 190202 16091.6 L 190202 16092.8 Z M 191627.6 27521.6 Q 191848.4 27642.8 192414.8 28109.6 Q 193004 28576.4 193446.8 28846.4 Q 195314 30075.2 199884.8 30075.2 Q 204726.8 30075.2 208707.2 29608.4 Q 208192.4 30740 208167.2 31526 Q 204604.4 31796 199836.8 31796 Q 195143.6 31796 193004 30370.4 Q 190719.2 28823.6 190670 28823.6 Q 189711.2 28823.6 187377.2 32116.4 L 186123.2 30444.8 Q 188236.4 28012.4 189809.6 27398 L 189809.6 20933.6 L 186419.6 20933.6 L 186419.6 19163.6 L 191628.8 19163.6 L 191628.8 27520.4 L 191627.6 27521.6 Z M 227802.8 13365.2 L 222396.8 13365.2 L 222396.8 11718.8 L 227802.8 11718.8 L 227802.8 10072.4 L 229596.8 10072.4 L 229596.8 11718.8 L 236478.8 11718.8 L 236478.8 10072.4 L 238248.8 10072.4 L 238248.8 11718.8 L 243778.4 11718.8 L 243778.4 13365.2 L 238248.8 13365.2 L 238248.8 15281.6 L 236478.8 15281.6 L 236478.8 13365.2 L 229596.8 13365.2 L 229596.8 15257.6 L 227802.8 15257.6 L 227802.8 13365.2 Z M 226721.6 22384.4 L 239526.8 22384.4 L 239526.8 20369.6 L 226721.6 20369.6 L 226721.6 22384.4 Z M 226721.6 19041.2 L 239526.8 19041.2 L 239526.8 17050.4 L 226721.6 17050.4 L 226721.6 19041.2 Z M 235078.4 27348.8 Q 237731.6 30273.2 244342.4 30863.6 Q 243654.8 31599.2 243261.2 32510 Q 235864.4 31575.2 233112.8 27347.6 L 232965.2 27347.6 Q 230925.2 31378.4 222593.6 32534 Q 222396.8 31748 221757.2 30911.6 Q 228909.2 30149.6 230900 27347.6 L 222250.4 27347.6 L 222250.4 25701.2 L 231736.4 25701.2 Q 232006.4 24914 232202 23760.8 L 224978 23760.8 L 224978 15674 L 241320.8 15674 L 241320.8 23760.8 L 233997.2 23760.8 Q 233751.2 25062.8 233579.6 25701.2 L 243900.8 25701.2 L 243900.8 27347.6 L 235078.4 27347.6 L 235078.4 27348.8 Z M 267665.6 21425.6 Q 265895.6 20148.8 262282.4 18353.6 Q 259824.8 20296.4 256850 21549.2 Q 256211.6 20541.2 255696.8 20075.6 Q 261765.2 17739.2 264764 13046 L 256973.6 13046 L 256973.6 11350.4 L 265845.2 11350.4 L 266214.8 11277.2 L 267467.6 11939.6 Q 266214.8 14790.8 263608.4 17199.2 Q 267000.8 18821.6 268720.4 20001.2 L 267664.4 21426.8 L 267665.6 21425.6 Z M 253116.8 27004.4 L 253116.8 32386.4 L 251421.2 32386.4 L 251421.2 27347.6 Q 249675.2 27668 246825.2 28257.2 L 246406.4 26489.6 Q 249233.6 26022.8 251421.2 25629.2 L 251421.2 22114.4 L 249209.6 22114.4 Q 247758.8 22114.4 247414.4 22458.8 Q 247144.4 21402.8 246850.4 20837.6 Q 247292 20714 248006 18870.8 Q 248620.4 17321.6 249284 14692.4 L 246629.6 14692.4 L 246629.6 12972.8 L 249676.4 12972.8 Q 250070 11277.2 250217.6 10072.4 L 252012.8 10440.8 Q 251643.2 12210.8 251446.4 12974 L 255820.4 12974 L 255820.4 14693.6 L 250978.4 14693.6 Q 250168.4 17666 249036.8 20444 L 251421.2 20444 L 251421.2 16684.4 L 253116.8 16684.4 L 253116.8 20444 L 255598.4 20444 L 255598.4 22114.4 L 253116.8 22114.4 L 253116.8 25335.2 L 255771.2 24842 L 255868.4 26464.4 L 253116.8 27005.6 L 253116.8 27004.4 Z M 263241.2 30100.4 L 268647.2 30100.4 L 268647.2 31822.4 L 255720.8 31822.4 L 255720.8 30100.4 L 261447.2 30100.4 L 261447.2 24153.2 L 257097.2 24153.2 L 257097.2 22457.6 L 267566 22457.6 L 267566 24153.2 L 263241.2 24153.2 L 263241.2 30100.4 Z M 282779.6 24227.6 L 281009.6 24227.6 L 281009.6 11252 L 292142 11252 L 292142 24227.6 L 290324 24227.6 L 290324 12874.4 L 282778.4 12874.4 L 282778.4 24227.6 L 282779.6 24227.6 Z M 276046.4 14126 Q 275235.2 12504.8 273785.6 10931.6 L 275186 10120.4 Q 276783.2 11667.2 277521.2 13192.4 L 276047.6 14124.8 L 276046.4 14126 Z M 278774 25211.6 Q 277937.6 23957.6 276390.8 21966.8 L 276390.8 32484.8 L 274644.8 32484.8 L 274644.8 22974.8 Q 273195.2 24548 271793.6 25580 Q 271475.6 24424.4 270982.4 23810 Q 275210 20934.8 277496 15946.4 L 271572.8 15946.4 L 271572.8 14276 L 278380.4 14276 L 278724.8 14202.8 L 279707.6 14865.2 Q 278675.6 17643.2 276857.6 20248.4 Q 277716.8 21207.2 279929.6 23764.4 L 278774 25214 L 278774 25211.6 Z M 290963.6 30741.2 Q 291578 30741.2 291774.8 29979.2 Q 291947.6 29265.2 292044.8 26586.8 Q 292659.2 27077.6 293543.6 27298.4 Q 293370.8 30297.2 292953.2 31157.6 Q 292462.4 32140.4 290939.6 32140.4 L 288702.8 32140.4 Q 287424.8 32140.4 286910 31698.8 Q 286368.8 31256 286368.8 30076.4 L 286368.8 25382 Q 284649.2 29952.8 279807.2 32534 Q 279437.6 31772 278651.6 31157.6 Q 282804.8 29020.4 284426 25554.8 Q 285557.6 23146.4 285557.6 19508 L 285557.6 14740.4 L 287327.6 14740.4 L 287327.6 19558.4 Q 287327.6 21843.2 286836.8 23835.2 L 288065.6 23835.2 L 288065.6 29879.6 Q 288065.6 30396.8 288262.4 30568.4 Q 288434 30741.2 288975.2 30741.2 L 290966 30741.2 L 290963.6 30741.2 Z M 309641.6 17888 L 301972.4 17888 L 301972.4 12062 L 303276.8 12062 L 303276.8 16388 L 305144 16388 L 305144 10071.2 L 306544.4 10071.2 L 306544.4 16388 L 308314.4 16388 L 308314.4 12062 L 309642.8 12062 L 309642.8 17888 L 309641.6 17888 Z M 301113.2 10686.8 Q 299122.4 13882.4 296271.2 16290.8 Q 295877.6 15627.2 295263.2 14915.6 Q 297966.8 12778.4 299440.4 10050.8 L 301112 10689.2 L 301113.2 10686.8 Z M 301554.8 15503.6 Q 300916.4 16829.6 299859.2 18549.2 L 299859.2 32459.6 L 298188.8 32459.6 L 298188.8 20958.8 Q 297353.6 22112 296075.6 23489.6 Q 295534.4 22481.6 294993.2 21891.2 Q 298114.4 18892.4 299957.6 14936 L 301554.8 15502.4 L 301554.8 15503.6 Z M 310697.6 25972.4 Q 310894.4 26758.4 311164.4 27275.6 Q 307798.4 29536.4 307331.6 30150.8 Q 307158.8 29463.2 306668 28628 Q 307331.6 28210.4 307331.6 27105.2 L 307331.6 24254 L 304160 24254 L 304160 25679.6 Q 304160 30053.6 301924.4 32438 Q 301506.8 31724 300743.6 31209.2 Q 302562.8 29316.8 302562.8 25654.4 L 302562.8 22804.4 L 308830.4 22804.4 L 308830.4 27153.2 L 310697.6 25973.6 L 310697.6 25972.4 Z M 312566 16683.2 L 312442.4 17174 Q 312342.8 17518.4 312318.8 17666 Q 312860 21722 313818.8 24548 Q 315047.6 21304.4 315538.4 16683.2 L 312566 16683.2 Z M 317186 16683.2 Q 316400 22974.8 314654 26588 Q 316079.6 29684 318216.8 30986 Q 317505.2 31600.4 317038.4 32411.6 Q 315071.6 31035.2 313721.6 28257.2 Q 312050 30887.6 309568.4 32558 Q 309075.2 31673.6 308510 31208 Q 311288 29486 312934.4 26463.2 Q 311999.6 23834 311410.4 20368.4 Q 310869.2 21548 310548.8 22038.8 Q 309958.4 21276.8 309640.4 20958.8 L 309640.4 21252.8 L 301505.6 21252.8 L 301505.6 19679.6 L 309640.4 19679.6 L 309640.4 20170.4 Q 311310.8 16877.6 311998.4 10070 L 313670 10340 Q 313373.6 12846.8 312932 15107.6 L 317994.8 15107.6 L 317994.8 16680.8 L 317183.6 16680.8 L 317186 16683.2 Z " fill-rule="nonzero" style="fill:#04c9a9;;fill-opacity:1;"/>
</svg>