<svg version="1.1" x="0" y="0" width="100%" height="100%" viewBox="0 0 160768 77004.8" xmlns="http://www.w3.org/2000/svg">
  <path d="M 20332.4 30176 Q 22248.8 30176 22839.2 29339.6 Q 23378 28577.6 23624 25702.4 Q 24532.4 26267.6 25443.2 26440.4 Q 25146.8 29782.4 24214.4 30838.4 Q 23206.4 31970 20306 31970 L 11042 31970 Q 8043.2 31970 6986 31306.4 Q 5880.8 30618.8 5880.8 28578.8 L 5880.8 19462.4 L 20478.8 19462.4 L 20478.8 13342.4 L 5560.4 13342.4 L 5560.4 11499.2 L 22346 11499.2 L 22346 22804.4 L 20478.8 22804.4 L 20478.8 21255.2 L 7724 21255.2 L 7724 28578.8 Q 7724 29562.8 8338.4 29856.8 Q 8952.8 30177.2 10943.6 30177.2 L 20332.4 30177.2 L 20332.4 30176 Z M 41714 15945.2 Q 40731.2 18845.6 39575.6 20442.8 Q 39132.8 20074.4 38027.6 19484 Q 40313.6 16436 41296.4 10047.2 L 43066.4 10317.2 Q 42696.8 12602 42206 14273.6 L 48646.4 14273.6 L 48964.4 14200.4 L 50169.2 14544.8 Q 49455.2 18648.8 48693.2 20786 L 47219.6 20344.4 Q 47686.4 18942.8 48201.2 15944 L 41712.8 15944 L 41714 15945.2 Z M 38027.6 15822.8 Q 36774.8 13782.8 34390.4 11398.4 L 35766.8 10588.4 Q 38348 13119.2 39453.2 14862.8 L 38027.6 15821.6 L 38027.6 15822.8 Z M 32988.8 11129.6 Q 31366.4 14495.6 28958 16853.6 Q 28613.6 16485.2 27581.6 15723.2 Q 29990 13559.6 31292 10635.2 L 32987.6 11128.4 L 32988.8 11129.6 Z M 36086 24179.6 L 31488.8 24179.6 L 31488.8 29142.8 L 36086 29142.8 L 36086 24179.6 Z M 37732.4 22506.8 Q 36159.2 20345.6 33676.4 17691.2 Q 32300 20418.8 30359.6 22506.8 L 37732.4 22506.8 Z M 37806.8 30790.4 L 31490 30790.4 L 31490 32214.8 L 29770.4 32214.8 L 29770.4 23098.4 Q 29180 23663.6 28541.6 24180.8 Q 28074.8 23442.8 27312.8 22901.6 Q 31220 20050.4 33162.8 14890.4 L 34685.6 15356 L 34365.2 16192.4 Q 38051.6 19926.8 39550.4 22139.6 L 38273.6 23319.2 L 37806.8 22631.6 L 37806.8 30791.6 L 37806.8 30790.4 Z M 45276.8 16634 Q 45179.6 18624.8 44982.8 20394.8 Q 46162.4 27644 50145.2 31085.6 Q 49308.8 31650.8 48916.4 32535.2 Q 45598.4 29390 44246 24671.6 Q 42920 29907.2 39478.4 32486 Q 38987.6 31724 38225.6 31182.8 Q 40953.2 29168 42231.2 25456.4 Q 43336.4 22114.4 43581.2 16437.2 L 45276.8 16634 Z M 62922.8 14397.2 Q 62626.4 12776 61742 10415.6 L 63512 9948.8 Q 64422.8 12258.8 64791.2 13856 L 62924 14397.2 L 62922.8 14397.2 Z M 73391.6 16486.4 L 53657.6 16486.4 L 53657.6 14692.4 L 73391.6 14692.4 L 73391.6 16486.4 Z M 59360 28577.6 Q 58866.8 24497.6 57048.8 18256.4 L 58866.8 17813.6 Q 60636.8 23909.6 61300.4 28110.8 L 59360 28577.6 Z M 74374.4 29634.8 L 74374.4 31452.8 L 52601.6 31452.8 L 52601.6 29634.8 L 64496 29634.8 Q 66683.6 24473.6 68133.2 17812.4 L 70197.2 18206 Q 68306 25064 66462.8 29634.8 L 74374.4 29634.8 Z M 88875.2 13168.4 Q 88408.4 14816 87744.8 16732.4 L 97797.2 16732.4 L 97797.2 30200 Q 97797.2 31649.6 96862.4 32043.2 Q 96075.2 32363.6 93126.8 32363.6 Q 92955.2 31452.8 92488.4 30666.8 Q 94455.2 30740 95487.2 30666.8 Q 95978 30641.6 95978 30176 L 95978 18453.2 L 91800.8 18453.2 L 91800.8 31700 L 90005.6 31700 L 90005.6 18453.2 L 85950.8 18453.2 L 85950.8 31700 L 84156.8 31700 L 84156.8 18453.2 L 80273.6 18453.2 L 80273.6 32511.2 L 78430.4 32511.2 L 78430.4 16733.6 L 85827.2 16733.6 Q 86344.4 15011.6 86688.8 13168.4 L 77178.8 13168.4 L 77178.8 11350.4 L 99051.2 11350.4 L 99051.2 13168.4 L 88876.4 13168.4 L 88875.2 13168.4 Z M 112074.8 14397.2 Q 111778.4 12776 110894 10415.6 L 112664 9948.8 Q 113574.8 12258.8 113943.2 13856 L 112076 14397.2 L 112074.8 14397.2 Z M 122543.6 16486.4 L 102809.6 16486.4 L 102809.6 14692.4 L 122543.6 14692.4 L 122543.6 16486.4 Z M 108512 28577.6 Q 108018.8 24497.6 106200.8 18256.4 L 108018.8 17813.6 Q 109788.8 23909.6 110452.4 28110.8 L 108512 28577.6 Z M 123526.4 29634.8 L 123526.4 31452.8 L 101753.6 31452.8 L 101753.6 29634.8 L 113648 29634.8 Q 115835.6 24473.6 117285.2 17812.4 L 119349.2 18206 Q 117458 25064 115614.8 29634.8 L 123526.4 29634.8 Z M 138198.8 10145.6 Q 138125.6 12431.6 138028.4 13708.4 Q 139674.8 26832.8 148546.4 30764 Q 147662 31502 147220.4 32313.2 Q 139871.6 28871.6 137266.4 18796.4 Q 135053.6 28406 127533.2 32410.4 Q 127066.4 31672.4 126059.6 30984.8 Q 132596 27692 134932.4 20025.2 Q 136061.6 16265.6 136185.2 10145.6 L 138200 10145.6 L 138198.8 10145.6 Z M 20332.4 66630.4 Q 22248.8 66630.4 22839.2 65794 Q 23378 65032 23624 62156.8 Q 24532.4 62722 25443.2 62894.8 Q 25146.8 66236.8 24214.4 67292.8 Q 23206.4 68424.4 20306 68424.4 L 11042 68424.4 Q 8043.2 68424.4 6986 67760.8 Q 5880.8 67073.2 5880.8 65033.2 L 5880.8 55916.8 L 20478.8 55916.8 L 20478.8 49796.8 L 5560.4 49796.8 L 5560.4 47953.6 L 22346 47953.6 L 22346 59258.8 L 20478.8 59258.8 L 20478.8 57709.6 L 7724 57709.6 L 7724 65033.2 Q 7724 66017.2 8338.4 66311.2 Q 8952.8 66631.6 10943.6 66631.6 L 20332.4 66631.6 L 20332.4 66630.4 Z M 41714 52399.6 Q 40731.2 55300 39575.6 56897.2 Q 39132.8 56528.8 38027.6 55938.4 Q 40313.6 52890.4 41296.4 46501.6 L 43066.4 46771.6 Q 42696.8 49056.4 42206 50728 L 48646.4 50728 L 48964.4 50654.8 L 50169.2 50999.2 Q 49455.2 55103.2 48693.2 57240.4 L 47219.6 56798.8 Q 47686.4 55397.2 48201.2 52398.4 L 41712.8 52398.4 L 41714 52399.6 Z M 38027.6 52277.2 Q 36774.8 50237.2 34390.4 47852.8 L 35766.8 47042.8 Q 38348 49573.6 39453.2 51317.2 L 38027.6 52276 L 38027.6 52277.2 Z M 32988.8 47584 Q 31366.4 50950 28958 53308 Q 28613.6 52939.6 27581.6 52177.6 Q 29990 50014 31292 47089.6 L 32987.6 47582.8 L 32988.8 47584 Z M 36086 60634 L 31488.8 60634 L 31488.8 65597.2 L 36086 65597.2 L 36086 60634 Z M 37732.4 58961.2 Q 36159.2 56800 33676.4 54145.6 Q 32300 56873.2 30359.6 58961.2 L 37732.4 58961.2 Z M 37806.8 67244.8 L 31490 67244.8 L 31490 68669.2 L 29770.4 68669.2 L 29770.4 59552.8 Q 29180 60118 28541.6 60635.2 Q 28074.8 59897.2 27312.8 59356 Q 31220 56504.8 33162.8 51344.8 L 34685.6 51810.4 L 34365.2 52646.8 Q 38051.6 56381.2 39550.4 58594 L 38273.6 59773.6 L 37806.8 59086 L 37806.8 67246 L 37806.8 67244.8 Z M 45276.8 53088.4 Q 45179.6 55079.2 44982.8 56849.2 Q 46162.4 64098.4 50145.2 67540 Q 49308.8 68105.2 48916.4 68989.6 Q 45598.4 65844.4 44246 61126 Q 42920 66361.6 39478.4 68940.4 Q 38987.6 68178.4 38225.6 67637.2 Q 40953.2 65622.4 42231.2 61910.8 Q 43336.4 58568.8 43581.2 52891.6 L 45276.8 53088.4 Z M 72654.8 64320.4 Q 70640 61321.6 66290 56774.8 Q 64740.8 62132.8 60268.4 64490.8 Q 59751.2 63655.6 59013.2 63090.4 Q 64248.8 60410.8 65183.6 53087.2 L 59187.2 53087.2 L 59187.2 51317.2 L 65380.4 51317.2 Q 65477.6 50236 65577.2 46574.8 L 67420.4 46574.8 Q 67320.8 49744 67197.2 51317.2 L 74225.6 51317.2 L 74225.6 53087.2 L 67000.4 53087.2 Q 66952.4 53628.4 66755.6 54833.2 Q 71744 59675.2 74177.6 63164.8 L 72652.4 64320.4 L 72654.8 64320.4 Z M 56262.8 52547.2 Q 55427.6 50556.4 53264 47804.8 L 54813.2 47042.8 Q 56926.4 49500.4 57885.2 51661.6 L 56262.8 52546 L 56262.8 52547.2 Z M 57688.4 63976 Q 57909.2 64097.2 58475.6 64564 Q 59064.8 65030.8 59507.6 65300.8 Q 61374.8 66529.6 65945.6 66529.6 Q 70787.6 66529.6 74768 66062.8 Q 74253.2 67194.4 74228 67980.4 Q 70665.2 68250.4 65897.6 68250.4 Q 61204.4 68250.4 59064.8 66824.8 Q 56780 65278 56730.8 65278 Q 55772 65278 53438 68570.8 L 52184 66899.2 Q 54297.2 64466.8 55870.4 63852.4 L 55870.4 57388 L 52480.4 57388 L 52480.4 55618 L 57689.6 55618 L 57689.6 63974.8 L 57688.4 63976 Z M 88875.2 49622.8 Q 88408.4 51270.4 87744.8 53186.8 L 97797.2 53186.8 L 97797.2 66654.4 Q 97797.2 68104 96862.4 68497.6 Q 96075.2 68818 93126.8 68818 Q 92955.2 67907.2 92488.4 67121.2 Q 94455.2 67194.4 95487.2 67121.2 Q 95978 67096 95978 66630.4 L 95978 54907.6 L 91800.8 54907.6 L 91800.8 68154.4 L 90005.6 68154.4 L 90005.6 54907.6 L 85950.8 54907.6 L 85950.8 68154.4 L 84156.8 68154.4 L 84156.8 54907.6 L 80273.6 54907.6 L 80273.6 68965.6 L 78430.4 68965.6 L 78430.4 53188 L 85827.2 53188 Q 86344.4 51466 86688.8 49622.8 L 77178.8 49622.8 L 77178.8 47804.8 L 99051.2 47804.8 L 99051.2 49622.8 L 88876.4 49622.8 L 88875.2 49622.8 Z M 121806.8 64320.4 Q 119792 61321.6 115442 56774.8 Q 113892.8 62132.8 109420.4 64490.8 Q 108903.2 63655.6 108165.2 63090.4 Q 113400.8 60410.8 114335.6 53087.2 L 108339.2 53087.2 L 108339.2 51317.2 L 114532.4 51317.2 Q 114629.6 50236 114729.2 46574.8 L 116572.4 46574.8 Q 116472.8 49744 116349.2 51317.2 L 123377.6 51317.2 L 123377.6 53087.2 L 116152.4 53087.2 Q 116104.4 53628.4 115907.6 54833.2 Q 120896 59675.2 123329.6 63164.8 L 121804.4 64320.4 L 121806.8 64320.4 Z M 105414.8 52547.2 Q 104579.6 50556.4 102416 47804.8 L 103965.2 47042.8 Q 106078.4 49500.4 107037.2 51661.6 L 105414.8 52546 L 105414.8 52547.2 Z M 106840.4 63976 Q 107061.2 64097.2 107627.6 64564 Q 108216.8 65030.8 108659.6 65300.8 Q 110526.8 66529.6 115097.6 66529.6 Q 119939.6 66529.6 123920 66062.8 Q 123405.2 67194.4 123380 67980.4 Q 119817.2 68250.4 115049.6 68250.4 Q 110356.4 68250.4 108216.8 66824.8 Q 105932 65278 105882.8 65278 Q 104924 65278 102590 68570.8 L 101336 66899.2 Q 103449.2 64466.8 105022.4 63852.4 L 105022.4 57388 L 101632.4 57388 L 101632.4 55618 L 106841.6 55618 L 106841.6 63974.8 L 106840.4 63976 Z M 138198.8 46600 Q 138125.6 48886 138028.4 50162.8 Q 139674.8 63287.2 148546.4 67218.4 Q 147662 67956.4 147220.4 68767.6 Q 139871.6 65326 137266.4 55250.8 Q 135053.6 64860.4 127533.2 68864.8 Q 127066.4 68126.8 126059.6 67439.2 Q 132596 64146.4 134932.4 56479.6 Q 136061.6 52720 136185.2 46600 L 138200 46600 L 138198.8 46600 Z " fill-rule="nonzero" style="fill:#000000;;fill-opacity:1;"/>
</svg>