<svg version="1.1" x="0" y="0" width="100%" height="100%" viewBox="0 0 114688 77004.8" xmlns="http://www.w3.org/2000/svg">
  <path d="M 5807.6 13241.6 L 5807.6 17888 L 9814.4 17888 L 9814.4 13241.6 L 5807.6 13241.6 Z M 9814.4 24424.4 L 9814.4 19558.4 L 5807.6 19558.4 L 5807.6 24424.4 L 9814.4 24424.4 Z M 5807.6 26120 L 5807.6 28380.8 L 4088 28380.8 L 4088 11571.2 L 11534 11571.2 L 11534 26120 L 5807.6 26120 Z M 22764.8 22998.8 L 22764.8 18698 L 16276.4 18698 L 16276.4 19805.6 Q 16276.4 21672.8 16128.8 22998.8 L 22763.6 22998.8 L 22764.8 22998.8 Z M 16276.4 12824 L 16276.4 17027.6 L 22764.8 17027.6 L 22764.8 12824 L 16276.4 12824 Z M 24560 30100.4 Q 24560 31673.6 23528 32116.4 Q 22593.2 32460.8 19275.2 32460.8 Q 19154 31600.4 18636.8 30668 Q 19424 30692 22175.6 30692 Q 22764.8 30668 22764.8 30101.6 L 22764.8 24671.6 L 15885.2 24671.6 Q 14974.4 29831.6 11510 32634.8 Q 10968.8 31896.8 10157.6 31430 Q 14482.4 27891.2 14482.4 19806.8 L 14482.4 11105.6 L 24558.8 11105.6 L 24558.8 30102.8 L 24560 30100.4 Z M 37535.6 14913.2 Q 36404 17640.8 34413.2 20074.4 Q 34954.4 20589.2 38346.8 24104 L 37215.2 25602.8 Q 36330.8 24398 34143.2 21964.4 L 34143.2 32458.4 L 32373.2 32458.4 L 32373.2 22307.6 Q 30482 24200 28368.8 25526 Q 28024.4 24396.8 27581.6 23782.4 Q 32570 20931.2 35248.4 15942.8 L 28490 15942.8 L 28490 14272.4 L 33627.2 14272.4 Q 32816 12600.8 31193.6 10857.2 L 32619.2 10020.8 Q 34413.2 11889.2 35151.2 13388 L 33774.8 14272.4 L 36207.2 14272.4 L 36551.6 14199.2 L 37535.6 14910.8 L 37535.6 14913.2 Z M 47046.8 30176 Q 47808.8 30176 48078.8 29265.2 Q 48300.8 28454 48422 25652 Q 49160 26242.4 50094.8 26463.2 Q 49922 29584.4 49380.8 30665.6 Q 48766.4 31845.2 47145.2 31845.2 L 43212.8 31845.2 Q 41493.2 31845.2 40902.8 31181.6 Q 40313.6 30519.2 40313.6 28626.8 L 40313.6 10292 L 42107.6 10292 L 42107.6 28676 Q 42107.6 29634.8 42352.4 29904.8 Q 42574.4 30174.8 43385.6 30174.8 L 47046.8 30174.8 L 47046.8 30176 Z M 72507.2 13734.8 Q 71721.2 12530 70098.8 11031.2 L 71327.6 10343.6 Q 72900.8 11696 73785.2 12974 L 72507.2 13736 L 72507.2 13734.8 Z M 57688.4 15921.2 Q 56410.4 14225.6 53658.8 11817.2 L 54838.4 10661.6 Q 57689.6 13019.6 58942.4 14592.8 L 57689.6 15921.2 L 57688.4 15921.2 Z M 74226.8 18698 Q 73097.6 23565.2 70836.8 27251.6 Q 71843.6 30568.4 72827.6 30568.4 Q 73466 30568.4 73565.6 26858 Q 74130.8 27448.4 74892.8 27766.4 Q 74696 30347.6 74205.2 31306.4 Q 73738.4 32265.2 72633.2 32265.2 Q 70937.6 32265.2 69684.8 28948.4 Q 68234 30888.8 66390.8 32387.6 Q 65825.6 31700 65211.2 31330.4 Q 67448 29586.8 69070.4 27056 Q 67914.8 22779.2 67448 15849.2 L 62212.4 15849.2 L 62212.4 19239.2 L 66710 19239.2 L 66710 19977.2 Q 66513.2 27867.2 65972 28578.8 Q 65554.4 29193.2 64719.2 29292.8 Q 63932 29366 62555.6 29292.8 Q 62507.6 28382 62138 27719.6 Q 62925.2 27816.8 63957.2 27816.8 Q 64398.8 27816.8 64571.6 27522.8 Q 64965.2 27005.6 65086.4 20788.4 L 62211.2 20788.4 L 62211.2 20812.4 Q 62211.2 28628 60023.6 32608.4 Q 59409.2 31822.4 58623.2 31428.8 Q 59385.2 29954 59802.8 28110.8 Q 55772 31404.8 55403.6 31895.6 Q 55378.4 31919.6 55378.4 31992.8 L 55329.2 31919.6 Q 54863.6 31181.6 54370.4 30764 Q 55575.2 29756 55575.2 28306.4 L 55575.2 19484 L 52282.4 19484 L 52282.4 17714 L 57246.8 17714 L 57246.8 28061.6 L 59261.6 26463.2 Q 59409.2 27004.4 59852 27888.8 Q 60441.2 25110.8 60441.2 20786 L 60441.2 14200.4 L 67348.4 14200.4 Q 67248.8 11594 67224.8 10120.4 L 68944.4 10120.4 Q 68944.4 12208.4 69017.6 14200.4 L 74694.8 14200.4 L 74694.8 15846.8 L 69116 15846.8 Q 69436.4 21056 70296.8 24963.2 Q 71894 21694.4 72581.6 18081.2 L 74228 18695.6 L 74226.8 18698 Z M 90791.6 13955.6 Q 90324.8 12702.8 89096 10686.8 L 90645.2 10048.4 Q 91874 11818.4 92439.2 13242.8 L 90792.8 13956.8 L 90791.6 13955.6 Z M 83763.2 10636.4 Q 82952 13046 81699.2 15478.4 L 81699.2 32584.4 L 80003.6 32584.4 L 80003.6 18428 Q 79044.8 19977.2 77668.4 21599.6 Q 77274.8 20715.2 76660.4 19904 Q 80100.8 16193.6 82140.8 10146.8 L 83763.2 10637.6 L 83763.2 10636.4 Z M 86466.8 26144 L 86466.8 30027.2 L 95682.8 30027.2 L 95682.8 26144 L 86466.8 26144 Z M 84868.4 24621.2 L 97304 24621.2 L 97304 32436.8 L 95682.8 32436.8 L 95682.8 31552.4 L 86466.8 31552.4 L 86466.8 32511.2 L 84868.4 32511.2 L 84868.4 24621.2 Z M 85212.8 21057.2 L 97059.2 21057.2 L 97059.2 22556 L 85212.8 22556 L 85212.8 21057.2 Z M 97059.2 19116.8 L 85212.8 19116.8 L 85212.8 17618 L 97059.2 17618 L 97059.2 19116.8 Z M 98999.6 14102 L 98999.6 15651.2 L 83442.8 15651.2 L 83442.8 14102 L 98999.6 14102 Z M 7136 49475.2 L 7136 54980.8 Q 7136 64368.4 4529.6 68915.2 Q 3767.6 68276.8 2981.6 68006.8 Q 5339.6 63827.2 5339.6 54956.8 L 5339.6 47804.8 L 25148 47804.8 L 25148 49475.2 L 7134.8 49475.2 L 7136 49475.2 Z M 11091.2 56430.4 L 20946.8 56430.4 L 20946.8 54784 L 11091.2 54784 L 11091.2 56430.4 Z M 11091.2 53604.4 L 20946.8 53604.4 L 20946.8 52031.2 L 11091.2 52031.2 L 11091.2 53604.4 Z M 9371.6 57683.2 L 9371.6 50803.6 L 22740.8 50803.6 L 22740.8 57683.2 L 9371.6 57683.2 Z M 25444.4 64541.2 L 17136.8 64541.2 L 17136.8 66949.6 Q 17136.8 68227.6 16128.8 68548 Q 15342.8 68792.8 12074 68792.8 Q 11950.4 68326 11435.6 67294 Q 13966.4 67367.2 14850.8 67319.2 Q 15365.6 67319.2 15365.6 66900.4 L 15365.6 64542.4 L 7305.2 64542.4 L 7305.2 63067.6 L 15365.6 63067.6 L 15365.6 61838.8 Q 17332.4 61324 19347.2 60413.2 L 9296 60413.2 L 9296 59087.2 L 21560 59087.2 L 21953.6 58990 L 23058.8 59948.8 Q 20625.2 61495.6 17135.6 62600.8 L 17135.6 63067.6 L 25443.2 63067.6 L 25443.2 64542.4 L 25444.4 64541.2 Z M 50168 60977.2 L 34463.6 60977.2 L 34463.6 59478.4 L 50168 59478.4 L 50168 60977.2 Z M 42352.4 64762 Q 41886.8 63656.8 40608.8 61616.8 L 41961.2 61126 Q 43116.8 62845.6 43779.2 64147.6 L 42353.6 64762 L 42352.4 64762 Z M 43606.4 53186.8 L 41049.2 53186.8 L 41049.2 56503.6 L 43606.4 56503.6 L 43606.4 53186.8 Z M 44958.8 56503.6 L 47588 56503.6 L 47588 53186.8 L 44958.8 53186.8 L 44958.8 56503.6 Z M 39699.2 53186.8 L 37265.6 53186.8 L 37265.6 56503.6 L 39699.2 56503.6 L 39699.2 53186.8 Z M 40804.4 51809.2 Q 40976 50924.8 41075.6 50041.6 L 34709.6 50041.6 L 34709.6 48542.8 L 41272.4 48542.8 Q 41420 47534.8 41493.2 46453.6 L 43385.6 46550.8 L 43065.2 48542.8 L 50020.4 48542.8 L 50020.4 50041.6 L 42844.4 50041.6 L 42500 51809.2 L 49134.8 51809.2 L 49134.8 57880 L 35765.6 57880 L 35765.6 51809.2 L 40804.4 51809.2 Z M 34317.2 47214.4 Q 31810.4 50606.8 28468.4 53358.4 Q 28050.8 52523.2 27560 51908.8 Q 30950 49157.2 32645.6 46550.8 L 34317.2 47214.4 Z M 34734.8 52423.6 Q 34095.2 53728 32718.8 55816 L 32718.8 68964.4 L 30999.2 68964.4 L 30999.2 58150 Q 29794.4 59675.2 28492.4 60977.2 Q 27854 59872 27412.4 59354.8 Q 30902 56159.2 33113.6 51834.4 L 34736 52423.6 L 34734.8 52423.6 Z M 33479.6 67268.8 Q 34784 65719.6 35692.4 62720.8 L 37118 63262 Q 35962.4 66703.6 34905.2 68053.6 L 33479.6 67267.6 L 33479.6 67268.8 Z M 44097.2 67195.6 Q 44687.6 67195.6 44859.2 66802 Q 45032 66408.4 45105.2 64861.6 Q 45620 65254 46554.8 65450.8 Q 46431.2 67343.2 45964.4 67981.6 Q 45497.6 68621.2 44244.8 68621.2 L 40658 68621.2 Q 39132.8 68621.2 38591.6 68203.6 Q 38076.8 67784.8 38076.8 66556 L 38076.8 62869.6 L 39723.2 62869.6 L 39723.2 66556 Q 39723.2 66949.6 39920 67073.2 Q 40116.8 67196.8 40828.4 67196.8 L 44097.2 67196.8 L 44097.2 67195.6 Z M 47686.4 62450.8 Q 49406 65032 50192 67145.2 L 48718.4 67808.8 Q 48078.8 65744.8 46308.8 63041.2 L 47686.4 62450.8 Z M 72213.2 51097.6 Q 71352.8 49696 69239.6 47878 L 70541.6 47042.8 Q 72654.8 48689.2 73565.6 50138.8 L 72213.2 51097.6 Z M 65552 65179.6 Q 64078.4 65352.4 61127.6 65646.4 L 61127.6 68866 L 59408 68866 L 59408 65794 L 53043.2 66457.6 L 52846.4 64762 Q 54762.8 64614.4 59408 64220.8 L 59408 61788.4 L 56212.4 61788.4 Q 54639.2 61788.4 54246.8 62132.8 Q 53926.4 60977.2 53680.4 60460 Q 54147.2 60362.8 54810.8 59231.2 Q 54908 59083.6 55744.4 57461.2 L 52966.4 57461.2 L 52966.4 55962.4 L 56406.8 55962.4 Q 56973.2 54709.6 57317.6 53578 L 59111.6 54071.2 Q 58718 55103.2 58300.4 55962.4 L 65525.6 55962.4 L 65525.6 57461.2 L 57587.6 57461.2 Q 56751.2 59059.6 56015.6 60215.2 L 59405.6 60215.2 L 59405.6 58223.2 L 61125.2 58223.2 L 61125.2 60215.2 L 65008.4 60215.2 L 65008.4 61788.4 L 61125.2 61788.4 L 61125.2 64073.2 L 65549.6 63655.6 L 65549.6 65178.4 L 65552 65179.6 Z M 73391.6 55250.8 Q 72039.2 59969.2 69681.2 63679.6 Q 70762.4 66973.6 72335.6 66973.6 Q 73145.6 66973.6 73342.4 63041.2 Q 73859.6 63631.6 74768 63976 Q 74547.2 66727.6 74006 67735.6 Q 73464.8 68742.4 72186.8 68742.4 Q 69926 68742.4 68476.4 65425.6 Q 66854 67489.6 64937.6 69012.4 Q 64396.4 68300.8 63660.8 67759.6 Q 65921.6 66162.4 67788.8 63482.8 Q 66707.6 59648.8 66363.2 53530 L 52601.6 53530 L 52601.6 52055.2 L 58523.6 52055.2 L 58523.6 49966 L 53854.4 49966 L 53854.4 48492.4 L 58523.6 48492.4 L 58523.6 46525.6 L 60269.6 46525.6 L 60269.6 48492.4 L 64594.4 48492.4 L 64594.4 49966 L 60269.6 49966 L 60269.6 52055.2 L 66290 52055.2 Q 66142.4 49426 66142.4 46574.8 L 67936.4 46574.8 Q 67887.2 49474 68010.8 52055.2 L 74475.2 52055.2 L 74475.2 53530 L 68110.4 53530 Q 68355.2 57952 69069.2 61417.6 Q 70839.2 58248.4 71747.6 54782.8 L 73394 55249.6 L 73391.6 55250.8 Z M 82976 60019.6 L 82976 68965.6 L 81281.6 68965.6 L 81281.6 60560.8 L 77225.6 61813.6 L 76734.8 60067.6 Q 79904 59208.4 81281.6 58765.6 L 81281.6 53285.2 L 79044.8 53285.2 Q 78554 55571.2 77963.6 56921.2 Q 77055.2 56306.8 76564.4 56110 Q 77693.6 53555.2 78258.8 47928.4 L 79857.2 48198.4 Q 79709.6 49475.2 79389.2 51515.2 L 81281.6 51515.2 L 81281.6 46526.8 L 82976 46526.8 L 82976 51515.2 L 85509.2 51515.2 L 85509.2 53285.2 L 82976 53285.2 L 82976 58297.6 L 85827.2 57414.4 L 86073.2 59035.6 L 82976 60019.6 Z M 99050 50630.8 Q 99050 51318.4 99026 51539.2 Q 98312 66016 96959.6 67710.4 Q 96345.2 68546.8 95264 68644 Q 94380.8 68767.6 92462 68644 Q 92414 67562.8 91947.2 66851.2 Q 93323.6 66974.8 94528.4 66974.8 Q 95093.6 66974.8 95438 66556 Q 96593.6 65279.2 97257.2 52327.6 L 96076.4 52327.6 Q 93864.8 63928 88065.2 68549.2 Q 87524 67934.8 86541.2 67441.6 Q 92218.4 63362.8 94503.2 52327.6 L 92488.4 52327.6 Q 90497.6 59946.4 86441.6 63460 Q 85900.4 62869.6 84992 62404 Q 88899.2 59356 90915.2 52327.6 L 88802 52327.6 Q 87500 55226.8 86001.2 56996.8 Q 85631.6 56628.4 84599.6 55940.8 Q 87524 52745.2 88900.4 46504 L 90572 46848.4 Q 90105.2 48863.2 89466.8 50633.2 L 97330.4 50633.2 L 97330.4 50609.2 L 99050 50633.2 L 99050 50630.8 Z " fill-rule="nonzero" style="fill:#f64747;;fill-opacity:1;"/>
</svg>